<svg width="30" height="30" viewBox="0 0 30 30" fill="none" xmlns="http://www.w3.org/2000/svg">
<g clip-path="url(#clip0_1462_5280)">
<g clip-path="url(#clip1_1462_5280)">
<path d="M17.0481 22H12.9517C12.745 21.9999 12.5456 21.9236 12.3917 21.7856C12.2378 21.6477 12.1401 21.4579 12.1173 21.2524L10.9035 10.3324C10.8905 10.2151 10.9024 10.0963 10.9384 9.98387C10.9744 9.87143 11.0338 9.76784 11.1125 9.67986C11.1912 9.59188 11.2876 9.52149 11.3954 9.47327C11.5031 9.42505 11.6199 9.4001 11.7379 9.40002H18.2619C18.38 9.4001 18.4967 9.42505 18.6045 9.47327C18.7123 9.52149 18.8087 9.59188 18.8874 9.67986C18.9661 9.76784 19.0254 9.87143 19.0614 9.98387C19.0974 10.0963 19.1093 10.2151 19.0963 10.3324L17.8825 21.2524C17.8598 21.4579 17.7621 21.6477 17.6082 21.7856C17.4542 21.9236 17.2548 21.9999 17.0481 22Z" fill="#DE1483" stroke="#DE1483" stroke-width="1.5" stroke-linecap="round"/>
<path d="M4.5 8C5.42826 8 6.3185 7.63125 6.97487 6.97487C7.63125 6.3185 8 5.42826 8 4.5C8 3.57174 7.63125 2.6815 6.97487 2.02513C6.3185 1.36875 5.42826 1 4.5 1C3.57174 1 2.6815 1.36875 2.02513 2.02513C1.36875 2.6815 1 3.57174 1 4.5C1 5.42826 1.36875 6.3185 2.02513 6.97487C2.6815 7.63125 3.57174 8 4.5 8Z" fill="#DE1483" stroke="#DE1483" stroke-width="1.5" stroke-miterlimit="1.5" stroke-linecap="round" stroke-linejoin="round"/>
<path d="M4.5 4.5L10.8 9.4M4.5 25.5L11.5 19.9M25.5 4.5L19.2 9.4M25.5 25.5L18.5 19.9" stroke="#DE1483" stroke-width="1.5" stroke-linecap="round" stroke-linejoin="round"/>
<path d="M4.5 29C5.42826 29 6.3185 28.6313 6.97487 27.9749C7.63125 27.3185 8 26.4283 8 25.5C8 24.5717 7.63125 23.6815 6.97487 23.0251C6.3185 22.3687 5.42826 22 4.5 22C3.57174 22 2.6815 22.3687 2.02513 23.0251C1.36875 23.6815 1 24.5717 1 25.5C1 26.4283 1.36875 27.3185 2.02513 27.9749C2.6815 28.6313 3.57174 29 4.5 29ZM25.5 8C26.4283 8 27.3185 7.63125 27.9749 6.97487C28.6313 6.3185 29 5.42826 29 4.5C29 3.57174 28.6313 2.6815 27.9749 2.02513C27.3185 1.36875 26.4283 1 25.5 1C24.5717 1 23.6815 1.36875 23.0251 2.02513C22.3687 2.6815 22 3.57174 22 4.5C22 5.42826 22.3687 6.3185 23.0251 6.97487C23.6815 7.63125 24.5717 8 25.5 8ZM25.5 29C26.4283 29 27.3185 28.6313 27.9749 27.9749C28.6313 27.3185 29 26.4283 29 25.5C29 24.5717 28.6313 23.6815 27.9749 23.0251C27.3185 22.3687 26.4283 22 25.5 22C24.5717 22 23.6815 22.3687 23.0251 23.0251C22.3687 23.6815 22 24.5717 22 25.5C22 26.4283 22.3687 27.3185 23.0251 27.9749C23.6815 28.6313 24.5717 29 25.5 29Z" fill="#DE1483" stroke="#DE1483" stroke-width="1.5" stroke-miterlimit="1.5" stroke-linecap="round" stroke-linejoin="round"/>
</g>
</g>
<defs>
<clipPath id="clip0_1462_5280">
<rect width="30" height="30" fill="white"/>
</clipPath>
<clipPath id="clip1_1462_5280">
<rect width="30" height="30" fill="white"/>
</clipPath>
</defs>
</svg>
