<svg width="24" height="26" viewBox="0 0 24 26" fill="none" xmlns="http://www.w3.org/2000/svg">
<path fill-rule="evenodd" clip-rule="evenodd" d="M18.0989 0.648495C14.0821 -0.216165 9.91666 -0.216165 5.89988 0.648495L5.46707 0.740705C4.3372 0.983969 3.29947 1.5241 2.46917 2.3011C1.63887 3.07811 1.0485 4.06155 0.76364 5.1422C-0.254547 9.00584 -0.254547 13.0532 0.76364 16.9168C1.03529 17.9474 1.58509 18.8906 2.35728 19.6506C3.12948 20.4106 4.09662 20.9605 5.16066 21.2446L5.75433 24.6576C5.77328 24.7659 5.82206 24.8674 5.89558 24.9515C5.9691 25.0356 6.06468 25.0991 6.17236 25.1355C6.28005 25.1719 6.39589 25.1799 6.50785 25.1585C6.6198 25.1371 6.72376 25.0873 6.8089 25.0141L10.2956 22.0105C12.913 22.1643 15.5399 21.9628 18.0989 21.4118L18.533 21.3196C19.6629 21.0763 20.7006 20.5362 21.5309 19.7592C22.3612 18.9822 22.9516 17.9987 23.2364 16.9181C24.2545 13.0544 24.2545 9.00708 23.2364 5.14343C22.9515 4.06263 22.3609 3.07907 21.5304 2.30205C20.6998 1.52504 19.6618 0.984996 18.5317 0.741934L18.0989 0.648495ZM6.97743 5.04262C6.74015 5.00936 6.49819 5.05535 6.29183 5.17294H6.27396C5.79519 5.44342 5.36366 5.78399 4.99596 6.18479C4.68955 6.52535 4.52358 6.86961 4.48017 7.20156C4.45463 7.39828 4.47251 7.59745 4.53251 7.78556L4.55549 7.79785C4.90021 8.77282 5.34961 9.71091 5.8986 10.5937C6.60648 11.8336 7.47759 12.9803 8.49034 14.0054L8.52098 14.0472L8.5695 14.0817L8.59886 14.1149L8.63461 14.1444C9.70288 15.1226 10.8965 15.9654 12.1864 16.6525C13.6611 17.4258 14.556 17.791 15.0935 17.9434V17.9508C15.2506 17.9975 15.3936 18.0184 15.5378 18.0184C15.9956 17.9859 16.4289 17.8067 16.7686 17.5094C17.1835 17.1553 17.5346 16.7386 17.8078 16.275V16.2664C18.0645 15.7992 17.9776 15.3591 17.6074 15.0603C16.8637 14.4346 16.0595 13.8788 15.2059 13.4005C14.6339 13.1018 14.053 13.2825 13.8181 13.585L13.3163 14.1948C13.0584 14.4972 12.5912 14.4554 12.5912 14.4554L12.5784 14.4628C9.09168 13.6059 8.16095 10.2064 8.16095 10.2064C8.16095 10.2064 8.11754 9.7441 8.44055 9.50805L9.06869 9.02118C9.37 8.78512 9.57938 8.22694 9.25637 7.67614C8.76305 6.85333 8.18705 6.07915 7.53663 5.36474C7.39477 5.1966 7.19583 5.08209 6.97488 5.04139L6.97743 5.04262ZM12.8682 3.56479C12.6989 3.56479 12.5365 3.62956 12.4168 3.74485C12.2971 3.86013 12.2298 4.01649 12.2298 4.17953C12.2298 4.34257 12.2971 4.49893 12.4168 4.61421C12.5365 4.7295 12.6989 4.79426 12.8682 4.79426C14.4833 4.79426 15.8238 5.30203 16.8848 6.27577C17.4299 6.80813 17.8551 7.43885 18.1334 8.12981C18.413 8.822 18.5407 9.56091 18.5075 10.3011C18.504 10.3818 18.517 10.4624 18.5458 10.5383C18.5746 10.6141 18.6187 10.6838 18.6755 10.7433C18.7902 10.8634 18.9497 10.9348 19.119 10.9416C19.2883 10.9485 19.4535 10.8903 19.5783 10.7798C19.703 10.6694 19.7771 10.5157 19.7842 10.3527C19.8238 9.44225 19.6669 8.5338 19.3233 7.68474C18.9782 6.83166 18.4551 6.05584 17.7861 5.40531L17.7734 5.39301C16.4571 4.18199 14.7909 3.56479 12.8682 3.56479ZM12.8248 5.58604C12.6555 5.58604 12.4931 5.65081 12.3734 5.76609C12.2537 5.88138 12.1864 6.03774 12.1864 6.20077C12.1864 6.36381 12.2537 6.52017 12.3734 6.63546C12.4931 6.75074 12.6555 6.81551 12.8248 6.81551H12.8465C14.0109 6.89542 14.8586 7.26918 15.4523 7.88269C16.0613 8.51464 16.3766 9.30026 16.3524 10.2715C16.3485 10.4346 16.412 10.5924 16.529 10.7104C16.6459 10.8283 16.8067 10.8967 16.9761 10.9004C17.1454 10.9042 17.3093 10.843 17.4317 10.7304C17.5542 10.6177 17.6252 10.4629 17.6291 10.2998C17.6597 9.02486 17.2333 7.92449 16.3881 7.04665V7.04419C15.5238 6.1516 14.3377 5.67948 12.9103 5.58727L12.8886 5.58481L12.8248 5.58604ZM12.8005 7.6454C12.7151 7.63814 12.629 7.64753 12.5475 7.67302C12.4659 7.6985 12.3905 7.73955 12.3257 7.79372C12.261 7.84789 12.2083 7.91406 12.1707 7.9883C12.1331 8.06253 12.1114 8.14329 12.1069 8.22577C12.1025 8.30824 12.1153 8.39074 12.1447 8.46833C12.1741 8.54593 12.2194 8.61702 12.2779 8.67737C12.3365 8.73773 12.407 8.78611 12.4854 8.81961C12.5638 8.85312 12.6484 8.87108 12.7342 8.87241C13.2678 8.89946 13.6087 9.05437 13.8232 9.26215C14.039 9.47116 14.1998 9.80681 14.2292 10.3318C14.2308 10.4143 14.2496 10.4956 14.2845 10.571C14.3195 10.6463 14.3698 10.7141 14.4325 10.7703C14.4952 10.8265 14.5691 10.87 14.6496 10.8982C14.7301 10.9263 14.8157 10.9386 14.9013 10.9342C14.9869 10.9299 15.0706 10.9089 15.1476 10.8727C15.2246 10.8365 15.2932 10.7857 15.3494 10.7234C15.4056 10.6611 15.4482 10.5886 15.4746 10.5101C15.5011 10.4316 15.5108 10.3488 15.5034 10.2666C15.4625 9.52895 15.2225 8.87733 14.7309 8.39783C14.2369 7.91834 13.564 7.68474 12.8005 7.6454Z" fill="#DF1683"/>
</svg>
