<svg width="24" height="24" viewBox="0 0 24 24" fill="none" xmlns="http://www.w3.org/2000/svg">
<path d="M11.9952 2.87619C14.9667 2.87619 15.3186 2.88732 16.4924 2.94085C17.1982 2.94949 17.8973 3.07908 18.5592 3.32401C19.0393 3.50914 19.4753 3.79275 19.8391 4.15656C20.2029 4.52038 20.4865 4.95635 20.6716 5.4364C20.9166 6.09837 21.0462 6.79744 21.0548 7.50322C21.1078 8.67707 21.1195 9.02896 21.1195 12.0004C21.1195 14.9719 21.1083 15.3237 21.0548 16.4976C21.0462 17.2034 20.9166 17.9024 20.6716 18.5644C20.4865 19.0445 20.2029 19.4804 19.8391 19.8443C19.4753 20.2081 19.0393 20.4917 18.5592 20.6768C17.8973 20.9217 17.1982 21.0513 16.4924 21.06C15.3191 21.113 14.9672 21.1246 11.9952 21.1246C9.02326 21.1246 8.67137 21.1135 7.49805 21.06C6.79228 21.0513 6.09321 20.9217 5.43123 20.6768C4.95118 20.4917 4.51521 20.2081 4.1514 19.8443C3.78758 19.4804 3.50397 19.0445 3.31884 18.5644C3.07391 17.9024 2.94432 17.2034 2.93568 16.4976C2.88269 15.3237 2.87103 14.9719 2.87103 12.0004C2.87103 9.02896 2.88216 8.67707 2.93568 7.50322C2.94432 6.79744 3.07391 6.09837 3.31884 5.4364C3.50397 4.95635 3.78758 4.52038 4.1514 4.15656C4.51521 3.79275 4.95118 3.50914 5.43123 3.32401C6.09321 3.07908 6.79228 2.94949 7.49805 2.94085C8.6719 2.88785 9.02379 2.87619 11.9952 2.87619ZM11.9952 0.87085C8.9745 0.87085 8.594 0.883568 7.4069 0.937624C6.48322 0.955996 5.56934 1.13089 4.70414 1.45486C3.96193 1.7345 3.28969 2.17272 2.7343 2.73894C2.16757 3.29453 1.72897 3.96716 1.44916 4.70984C1.12519 5.57504 0.950298 6.48891 0.931925 7.4126C0.87893 8.59864 0.866211 8.97914 0.866211 11.9999C0.866211 15.0206 0.87893 15.4011 0.932985 16.5882C0.951357 17.5119 1.12625 18.4258 1.45022 19.291C1.72972 20.0336 2.16795 20.7062 2.7343 21.2619C3.28999 21.8282 3.96262 22.2665 4.7052 22.546C5.5704 22.8699 6.48428 23.0448 7.40796 23.0632C8.59506 23.1162 8.97398 23.13 11.9963 23.13C15.0186 23.13 15.3975 23.1172 16.5846 23.0632C17.5083 23.0448 18.4222 22.8699 19.2874 22.546C20.0265 22.2595 20.6976 21.8219 21.2579 21.2613C21.8182 20.7006 22.2553 20.0292 22.5413 19.2899C22.8653 18.4247 23.0402 17.5108 23.0586 16.5872C23.1116 15.4011 23.1243 15.0206 23.1243 11.9999C23.1243 8.97914 23.1116 8.59864 23.0575 7.41154C23.0391 6.48785 22.8642 5.57398 22.5403 4.70877C22.2608 3.96619 21.8225 3.29357 21.2562 2.73788C20.7005 2.17153 20.0279 1.7333 19.2853 1.4538C18.4201 1.12983 17.5062 0.954936 16.5825 0.936564C15.3965 0.883569 15.016 0.87085 11.9952 0.87085Z" fill="white"/>
<path d="M11.9992 6.28516C10.8689 6.28516 9.76394 6.62034 8.82411 7.24831C7.88428 7.87629 7.15177 8.76885 6.71921 9.81313C6.28666 10.8574 6.17348 12.0065 6.39399 13.1151C6.61451 14.2237 7.15881 15.242 7.95807 16.0413C8.75733 16.8406 9.77565 17.3849 10.8843 17.6054C11.9929 17.8259 13.142 17.7127 14.1862 17.2802C15.2305 16.8476 16.1231 16.1151 16.7511 15.1753C17.379 14.2354 17.7142 13.1305 17.7142 12.0002C17.7142 10.4845 17.1121 9.03082 16.0403 7.95905C14.9686 6.88727 13.5149 6.28516 11.9992 6.28516ZM11.9992 15.7099C11.2655 15.7099 10.5483 15.4923 9.93822 15.0847C9.32816 14.677 8.85269 14.0977 8.57191 13.4198C8.29113 12.742 8.21767 11.9961 8.36081 11.2765C8.50395 10.5568 8.85726 9.89585 9.37607 9.37704C9.89487 8.85823 10.5559 8.50492 11.2755 8.36178C11.9951 8.21864 12.741 8.29211 13.4188 8.57288C14.0967 8.85366 14.6761 9.32914 15.0837 9.93919C15.4913 10.5492 15.7089 11.2665 15.7089 12.0002C15.7089 12.984 15.318 13.9276 14.6223 14.6233C13.9266 15.319 12.9831 15.7099 11.9992 15.7099Z" fill="white"/>
<path d="M17.9361 7.3946C18.6736 7.3946 19.2716 6.79668 19.2716 6.05912C19.2716 5.32155 18.6736 4.72363 17.9361 4.72363C17.1985 4.72363 16.6006 5.32155 16.6006 6.05912C16.6006 6.79668 17.1985 7.3946 17.9361 7.3946Z" fill="white"/>
</svg>
