<svg width="20" height="16" viewBox="0 0 20 16" fill="none" xmlns="http://www.w3.org/2000/svg">
<path d="M17.374 15.874H2.49902C1.83598 15.874 1.2001 15.6106 0.731256 15.1418C0.262416 14.6729 -0.000976562 14.037 -0.000976562 13.374V2.5C-0.000976562 1.83696 0.262416 1.20107 0.731256 0.732233C1.2001 0.263392 1.83598 0 2.49902 0H17.374C18.0371 0 18.6729 0.263392 19.1418 0.732233C19.6106 1.20107 19.874 1.83696 19.874 2.5V13.374C19.874 14.037 19.6106 14.6729 19.1418 15.1418C18.6729 15.6106 18.0371 15.874 17.374 15.874ZM2.49902 1C2.1012 1 1.71967 1.15804 1.43836 1.43934C1.15706 1.72064 0.999023 2.10218 0.999023 2.5V13.374C0.999023 13.7718 1.15706 14.1534 1.43836 14.4347C1.71967 14.716 2.1012 14.874 2.49902 14.874H17.374C17.7718 14.874 18.1534 14.716 18.4347 14.4347C18.716 14.1534 18.874 13.7718 18.874 13.374V2.5C18.874 2.10218 18.716 1.72064 18.4347 1.43934C18.1534 1.15804 17.7718 1 17.374 1H2.49902Z" fill="white"/>
<path d="M12.5049 7.08598L8.53685 4.36898C8.38188 4.26314 8.20098 4.20157 8.01362 4.19088C7.82626 4.1802 7.63953 4.2208 7.47352 4.30833C7.30752 4.39586 7.16853 4.52699 7.0715 4.68763C6.97447 4.84826 6.92308 5.03231 6.92285 5.21998V10.654C6.92308 10.8416 6.97447 11.0257 7.0715 11.1863C7.16853 11.347 7.30752 11.4781 7.47352 11.5656C7.63953 11.6532 7.82626 11.6938 8.01362 11.6831C8.20098 11.6724 8.38188 11.6108 8.53685 11.505L12.5089 8.78798C12.647 8.693 12.7599 8.56576 12.8378 8.41729C12.9157 8.26881 12.9562 8.10359 12.9558 7.93592C12.9554 7.76826 12.9142 7.60322 12.8356 7.45512C12.757 7.30701 12.6435 7.1803 12.5049 7.08598Z" fill="white"/>
</svg>
