<svg width="24" height="24" viewBox="0 0 24 24" fill="none" xmlns="http://www.w3.org/2000/svg">
<path fill-rule="evenodd" clip-rule="evenodd" d="M3.17157 5.17157C2 6.34315 2 8.22876 2 12C2 15.7712 2 17.6569 3.17157 18.8284C4.34315 20 6.22876 20 10 20H14C17.7712 20 19.6569 20 20.8284 18.8284C22 17.6569 22 15.7712 22 12C22 8.22876 22 6.34315 20.8284 5.17157C19.6569 4 17.7712 4 14 4H10C6.22876 4 4.34315 4 3.17157 5.17157ZM6.32009 7.61589C6.10795 7.43911 5.79267 7.46777 5.61589 7.67991C5.43911 7.89205 5.46777 8.20733 5.67991 8.38411L7.8388 10.1832L7.86488 10.2049L7.8649 10.2049C8.76109 10.9518 9.46945 11.5421 10.0904 11.9415C10.7291 12.3522 11.3249 12.5949 12 12.5949C12.6751 12.5949 13.2709 12.3522 13.9096 11.9415C14.5306 11.5421 15.2389 10.9518 16.1351 10.2049L16.1612 10.1832L18.3201 8.38411C18.5322 8.20733 18.5609 7.89205 18.3841 7.67991C18.2073 7.46777 17.892 7.43911 17.6799 7.61589L15.521 9.41497C14.5929 10.1884 13.9315 10.7384 13.3687 11.1004C12.8174 11.4549 12.4111 11.5949 12 11.5949C11.5889 11.5949 11.1826 11.4549 10.6313 11.1004C10.0685 10.7384 9.40707 10.1884 8.47899 9.41497L6.32009 7.61589Z" fill="#DE1483"/>
</svg>
