<svg width="172" height="49" viewBox="0 0 172 49" fill="none" xmlns="http://www.w3.org/2000/svg">
<path d="M8.29819 6.27268H17.6511L25.9874 27.6705H19.3116L17.6892 23.4231H8.1457L6.48945 27.6705H0L8.29819 6.27268ZM16.0669 19.0471L13.3517 10.6808H12.4452L9.74264 19.0471H16.0669Z" fill="#DF1683"/>
<path d="M27.1099 17.279C27.1099 10.2228 32.5446 5.81461 40.6648 5.81461C44.4772 5.81461 48.0184 6.83929 50.2084 8.46673L47.9083 12.3927C45.9031 11.116 43.5457 10.4284 41.1308 10.4156C36.6788 10.4156 33.7391 12.9673 33.7391 17.279C33.7391 21.5908 36.6788 23.9214 40.8682 23.9214C42.1826 23.9214 43.486 23.694 44.7144 23.2503V19.1114H40.0549V15.5672H50.543V25.4002C47.9379 27.0959 44.3205 28.1487 40.3768 28.1487C31.6465 28.1487 27.1099 23.9013 27.1099 17.279Z" fill="#DF1683"/>
<path d="M55.5205 6.4977C58.8916 6.0724 62.2863 5.83758 65.6867 5.79449C72.7396 5.79449 76.8484 8.47876 76.8484 13.5861C76.8484 16.5878 75.154 18.9185 72.2482 20.2285L77.6787 27.6705H70.5326L66.1951 21.442H65.8181C64.6108 21.442 63.3697 21.3778 62.1243 21.3135V27.6705H55.5205V6.4977ZM62.1243 10.3634V16.8772C63.3767 17.0014 64.6351 17.0644 65.8943 17.066C68.4359 17.066 70.3463 15.8605 70.3463 13.6826C70.3463 11.0626 68.5333 10.1705 65.7079 10.1705C64.5106 10.1746 63.3144 10.239 62.1243 10.3634Z" fill="#DF1683"/>
<path d="M80.1523 16.9736C80.1523 10.2991 84.9051 5.79449 92.9406 5.79449C100.976 5.79449 105.725 9.97762 105.725 16.9736C105.725 23.9696 101.01 28.1487 92.9406 28.1487C84.8712 28.1487 80.1523 23.9656 80.1523 16.9736ZM99.1251 16.9736C99.1251 12.6297 96.9393 10.3312 92.9406 10.3312C88.9419 10.3312 86.7562 12.7905 86.7562 16.9736C86.7562 21.3938 88.9419 23.612 92.9406 23.612C96.9393 23.612 99.1208 21.3778 99.1208 16.9736H99.1251Z" fill="#DF1683"/>
<path d="M109.651 6.27268H116.628L126.057 19.9352V6.27268H132.093V27.6705H125.265L115.683 13.9397V27.6705H109.651V6.27268Z" fill="#DF1683"/>
<path d="M137.244 6.27268H143.844V27.6705H137.244V6.27268Z" fill="#DF1683"/>
<path d="M154.912 16.4753L146.987 6.27268H154.531L159.479 12.8186L163.888 6.27268H170.907L163.439 16.6843L172 27.6705H164.456L158.987 20.2607L153.764 27.6705H146.767L154.912 16.4753Z" fill="#DF1683"/>
<path d="M149.8 0H142.23L145.038 3.61252H152.523L149.8 0Z" fill="#DF1683"/>
<path d="M90.1023 37.2624H93.741L97.0027 45.5845H94.406L93.7749 43.9329H90.06L89.378 45.5845H86.8364L90.1023 37.2624ZM93.1268 42.2291L92.0678 38.9742H91.7162L90.6572 42.2291H93.1268Z" fill="#A9ABC7"/>
<path d="M97.8501 37.5598C97.8501 36.8646 98.3754 36.4025 99.2268 36.4025C100.078 36.4025 100.608 36.8646 100.608 37.5598C100.608 38.2549 100.078 38.713 99.2268 38.713C98.3754 38.713 97.8501 38.2549 97.8501 37.5598ZM97.9941 39.4363H100.459V45.5845H97.9941V39.4363Z" fill="#A9ABC7"/>
<path d="M102.268 41.984C102.252 41.162 102.159 40.343 101.989 39.5368L104.204 39.3359C104.34 39.6855 104.424 40.0069 104.513 40.3043C104.785 39.9801 105.131 39.7189 105.525 39.5406C105.92 39.3624 106.351 39.2717 106.788 39.2756C107.05 39.2761 107.312 39.3044 107.567 39.36V41.0879C107.288 41.0393 107.004 41.0137 106.72 41.0115C106.01 40.9829 105.31 41.1748 104.725 41.558V45.5764H102.26L102.268 41.984Z" fill="#A9ABC7"/>
<path d="M112.252 41.984C112.236 41.162 112.142 40.343 111.973 39.5368L114.188 39.3359C114.29 39.6212 114.379 39.8824 114.451 40.1396C115.076 39.5765 115.91 39.2691 116.772 39.2836C117.933 39.2836 118.636 39.6172 119.004 40.24C119.307 39.9313 119.676 39.6866 120.085 39.5218C120.495 39.3571 120.936 39.2759 121.381 39.2836C123.304 39.2836 123.948 40.1878 123.948 41.8152V45.5925H121.482V42.1286C121.482 41.1562 121.203 40.8347 120.5 40.8347C120.267 40.8389 120.038 40.8966 119.834 41.003C119.629 41.1094 119.455 41.2612 119.326 41.4455C119.326 41.554 119.326 41.6665 119.326 41.7911V45.5925H116.861V42.1286C116.861 41.1562 116.581 40.8347 115.878 40.8347C115.643 40.8386 115.412 40.8962 115.205 41.0024C114.997 41.1087 114.82 41.2607 114.688 41.4455C114.696 41.5311 114.696 41.6172 114.688 41.7027V45.5925H112.252V41.984Z" fill="#A9ABC7"/>
<path d="M125.252 43.9209C125.252 42.5908 126.735 41.8835 129.23 41.8835C129.48 41.8835 129.743 41.8835 130.005 41.8835V41.7911C130.005 41.0437 129.582 40.7584 128.628 40.7584C127.778 40.7873 126.939 40.9517 126.146 41.2446L125.676 39.8784C126.761 39.4973 127.908 39.3001 129.065 39.2957C131.238 39.2957 132.352 40.0753 132.352 41.6665V43.7923C132.374 44.3718 132.447 44.9485 132.572 45.5161L130.416 45.7171C130.311 45.4695 130.224 45.2158 130.153 44.9576C129.472 45.4625 128.637 45.7445 127.773 45.7613C126.231 45.7331 125.252 45.1384 125.252 43.9209ZM128.48 44.4432C129.01 44.4468 129.527 44.2843 129.95 43.9811V43.0248C129.713 43.0248 129.526 43.0248 129.319 43.0248C128.171 43.0248 127.481 43.1734 127.481 43.7963C127.502 44.2021 127.925 44.4432 128.48 44.4432Z" fill="#A9ABC7"/>
<path d="M133.309 46.7016C133.309 46.1069 133.762 45.5845 134.58 45.2509C134.346 45.1865 134.14 45.0526 133.992 44.8689C133.844 44.6852 133.762 44.4614 133.758 44.2303C133.758 43.8284 133.966 43.3101 134.728 42.852C134.459 42.7039 134.236 42.4903 134.082 42.2332C133.929 41.976 133.851 41.6847 133.856 41.3893C133.856 40.0753 135.207 39.2676 137.439 39.2676C138.031 39.2595 138.621 39.3216 139.197 39.4524C139.386 39.0263 139.704 38.6627 140.11 38.4074C140.516 38.1521 140.993 38.0166 141.48 38.0179L142.022 39.2234L140.29 39.9065C140.548 40.0591 140.762 40.2716 140.91 40.5239C141.058 40.7763 141.136 41.0602 141.137 41.3491C141.137 42.6792 139.904 43.4346 137.57 43.4346C137.042 43.4413 136.515 43.3914 135.999 43.286C135.924 43.3206 135.861 43.3735 135.814 43.4392C135.768 43.5048 135.741 43.5809 135.736 43.6597C135.736 43.945 136.088 44.0334 137.803 44.0615C140.68 44.0977 141.696 44.6964 141.696 45.8738C141.696 47.453 139.815 48.3451 136.922 48.3451C134.279 48.3531 133.309 47.5736 133.309 46.7016ZM137.198 47.0632C138.418 47.0632 139.239 46.79 139.239 46.2596C139.239 45.7291 138.727 45.6528 137.121 45.6126C136.757 45.6126 136.418 45.5885 136.096 45.5523C135.639 45.7773 135.376 46.0627 135.376 46.356C135.393 46.8623 136.156 47.0632 137.198 47.0632ZM138.769 41.3491C138.769 40.8508 138.346 40.5454 137.477 40.5454C136.609 40.5454 136.228 40.8548 136.228 41.3491C136.228 41.8434 136.651 42.1809 137.477 42.1809C138.303 42.1809 138.769 41.8715 138.769 41.3491Z" fill="#A9ABC7"/>
<path d="M142.848 37.5598C142.848 36.8646 143.378 36.4025 144.229 36.4025C145.08 36.4025 145.606 36.8646 145.606 37.5598C145.606 38.2549 145.08 38.713 144.229 38.713C143.378 38.713 142.848 38.2549 142.848 37.5598ZM142.996 39.4363H145.462V45.5845H142.996V39.4363Z" fill="#A9ABC7"/>
<path d="M146.839 42.5426C146.839 40.4932 148.453 39.2756 150.787 39.2756C151.776 39.2587 152.752 39.4991 153.608 39.9708L152.947 41.3893C152.38 41.0481 151.725 40.8631 151.054 40.8548C149.783 40.8548 149.232 41.538 149.232 42.4622C149.232 43.4829 149.91 44.0896 151.227 44.0896C151.858 44.0812 152.477 43.9326 153.036 43.6556L153.561 45.0862C152.726 45.5091 151.793 45.726 150.846 45.7171C148.338 45.7452 146.839 44.5397 146.839 42.5426Z" fill="#A9ABC7"/>
</svg>
