<svg width="1220" height="622" viewBox="0 0 1220 622" fill="none" xmlns="http://www.w3.org/2000/svg">
<path d="M1218.7 276.729C1193.77 257.603 1168.84 238.453 1143.9 219.277C1129.28 208.089 1116.39 193.447 1098.4 188.984C1097.97 188.867 1097.58 188.661 1097.24 188.381C1096.91 188.101 1096.63 187.752 1096.44 187.359C1093.04 178.327 1085.81 176.085 1078.6 174.045C1073.54 172.621 1068.55 170.007 1065.64 165.725C1061.85 160.189 1057.54 158.649 1052.24 159.052C1048.82 159.365 1045.41 158.345 1042.73 156.205C1011.06 132.128 977.196 112.545 943.704 92.2078C940.324 90.1571 936.795 89.169 933.373 92.2822C932.416 92.4947 930.843 92.3779 930.609 92.9729C929.759 95.098 931.799 95.3636 932.735 96.0649C943.215 103.8 953.759 111.408 964.26 119.111C989.653 137.759 1015.9 154.717 1042.29 171.367C1046.41 173.981 1048.3 175.873 1042.64 179.05C1039.45 180.845 1037.84 184.182 1037.83 188.559C1037.83 200.152 1037.71 200.3 1027.93 199.663C1023.25 199.355 1019.42 202.234 1015.17 203.371C1011.61 204.327 1008.8 200.184 1006.3 200.269C998.73 200.513 991.683 197.251 984.232 197.357C979.651 197.421 975.197 198.526 970.744 198.909C965.1 199.387 961.847 200.619 962.623 208.036C962.878 210.405 963.633 213.263 959.435 213.04C940.706 211.978 921.957 211.447 903.208 210.767C871.374 209.598 839.551 208.503 807.717 207.26C804.71 207.143 804.199 208.556 804.784 211.404C822.268 214.74 839.955 214.687 857.62 215.76C839.955 214.698 822.268 214.698 804.784 211.404C798.035 212.562 791.317 213.115 784.717 210.416C785.301 207.101 783.441 206.75 781.273 206.325C772.015 204.497 762.651 206.442 753.382 205.188C752.022 205.008 750.449 205.709 749.386 203.732C748.315 201.614 746.703 199.816 744.714 198.521C742.724 197.226 740.427 196.48 738.056 196.358C733.549 195.976 729.01 196.114 724.493 195.827C722.601 195.7 721.549 196.082 721.931 198.558L695.072 184.575C695.285 183.789 695.487 183.002 695.699 182.216C701.407 172.653 700.621 170.199 690.948 168.18C688.259 167.617 686.027 166.31 685.634 163.069C685.23 159.361 685.421 155.557 685.357 151.795C686.495 151.063 687.774 150.58 689.112 150.379C690.449 150.178 691.814 150.262 693.116 150.627C695.997 151.508 697.219 148.618 698.548 146.546C699.175 145.569 699.345 143.221 698.091 143.04C694.753 142.562 691.299 139.672 687.983 142.53C680.194 149.42 673.264 157.222 667.341 165.768C653.906 165.768 661.963 152.667 657.244 146.483V183.363C658.169 195.923 656.808 207.196 645.552 213.635C642.82 215.208 641.386 216.419 640.121 211.903C636.709 199.737 629.492 190.578 621.371 182.343C621.956 181.462 623.199 180.218 623.019 179.74C621.063 174.311 619.394 168.371 613.846 166.405C611.72 165.651 610.657 164.546 610.657 162.155C610.509 157.097 608.181 154.069 604.067 152.667L603.961 152.497C597.584 147.949 590.93 149.915 584.436 151.647C580.726 152.645 577.304 153.963 573.254 153.612C562.625 152.698 551.996 151.593 541.367 149.904C527.943 147.779 514.561 145.176 500.914 144.708C492.474 144.421 483.355 142.902 476.669 148.342C470.547 153.315 465.732 150.967 460.131 150.095C458.005 149.766 455.794 149.702 453.626 149.521C452.563 148.289 454.168 144.868 452.467 145.356C448.747 146.419 446.313 142.626 442.986 143.072C439.723 140.15 441.583 137.972 444.411 135.953C441.679 134.731 439.574 133.636 438.947 130.64L437.64 121.555C435.333 116.795 431.433 117.815 427.914 118.368C426.054 118.655 423.663 119.505 423.663 122.49C423.769 127.346 421.76 125.742 419.316 125.051C406.189 121.322 395.539 110.537 382.114 107.753L377.363 106.17C369.477 100.708 360.357 99.21 351.854 95.8099C351.376 91.5597 355.202 87.097 351.503 82.9425C346.688 77.5447 341.278 73.7302 334.284 73.3796C328.842 73.1352 324.166 69.8094 319.489 67.1424C316.991 65.708 318.511 61.4259 317.831 58.4827C317.137 55.408 315.253 52.7334 312.591 51.0449C308.339 48.006 311.103 43.5221 310.848 39.6757C310.624 36.318 312.739 36.488 314.802 36.0736C339.354 30.9309 364.332 30.9841 389.066 28.0833L483.312 17.0116L484.598 16.6185L485.002 16.6716L485.353 16.4485C487.745 15.269 486.533 14.1109 485.353 12.9527C482.643 10.9339 479.985 12.6871 477.318 13.1014L472.311 13.4202L463.181 14.4828L461.183 14.6421C453.509 15.2372 445.814 15.7047 438.15 16.4591C414.426 18.9242 390.671 21.0068 367.085 24.9594L364.098 25.4057C358.618 25.059 353.119 25.6849 347.857 27.2545L342.862 27.9133L325.537 28.1577C316.268 26.8295 307.468 20.3161 298.061 22.7493C289.898 24.8744 281.735 24.8744 273.614 25.4907C269.203 25.8201 264.686 24.7788 260.201 26.0751C257.597 26.8295 257.257 31.0584 253.76 30.6653C236.998 28.7952 220.555 31.9829 204.091 35.1174C164.339 42.672 124.395 47.8254 84.5473 53.8819C82.4853 54.2006 79.1053 53.1062 79.4135 58.1321C79.7218 63.1579 82.7298 62.2441 85.2913 62.1379C104.657 61.3409 124.012 60.459 143.368 59.5984C144.431 59.6834 145.377 59.8534 146.376 59.8428C166.571 59.5559 186.766 59.4709 206.865 61.8828C220.682 63.5298 234.564 64.3904 245.586 51.5549L246.755 50.4924C249.636 48.516 252.484 46.4972 255.407 44.6165C256.47 43.9258 258.256 42.6508 258.596 45.1584C259.202 50.4074 263.081 56.1664 256.98 60.6715C254.695 62.361 255.917 64.9217 256.311 67.4824C257.947 79.3723 268.417 85.4182 270.702 96.9043C270.989 98.3494 273.508 99.6032 275.188 100.23C285.2 103.97 294.745 111.822 306.011 105.341C306.011 107.955 306.011 110.356 309.147 110.654C309.782 110.668 310.389 110.919 310.849 111.357C311.309 111.795 311.589 112.389 311.634 113.023C312.463 118.442 313.696 123.787 314.238 129.238C315.46 141.531 316.364 153.867 317.363 166.193C317.618 169.327 318.734 170.443 321.296 168.977C321.306 169.063 321.334 169.147 321.377 169.222C321.421 169.298 321.479 169.364 321.548 169.416C321.618 169.469 321.697 169.507 321.781 169.528C321.866 169.549 321.954 169.553 322.04 169.54C322.316 171.665 323.262 171.357 324.378 170.369L326.833 169.306C329.873 170.369 327.078 173.333 328.29 174.98C328.121 174.931 327.942 174.932 327.774 174.983C327.606 175.034 327.456 175.132 327.344 175.267L326.345 175.511C321.147 175.203 315.949 174.938 310.763 174.566C309.753 174.491 307.638 175.054 308.127 173.131C309.721 166.841 305.661 168.626 303.333 168.541C267.11 167.16 230.879 165.853 194.642 164.62C180.282 164.131 165.944 163.898 151.573 163.558C151.573 160.264 151.382 156.97 151.573 153.687C151.701 151.137 150.999 149.989 148.778 149.16C139.828 145.813 130.709 145.218 121.408 145.803C113.968 146.259 106.358 147.79 99.2258 146.27C96.3454 145.664 94.9743 149.458 94.3897 147.715C92.5084 142.487 88.852 144.846 86.2479 144.91C78.4569 145.112 74.673 141.266 75.8847 132C76.7988 125.03 74.5668 121.375 69.1354 119.473C66.2656 118.474 63.4489 117.103 60.526 116.604C58.3151 116.232 56.9865 113.788 57.3373 112.991C59.2186 108.199 55.9236 105.925 53.9998 103.354C42.393 87.8833 30.2796 73.0077 17.6595 58.7271C15.5338 56.3151 13.3336 53.7756 9.8898 53.8819C6.44603 53.9881 2.21572 51.8524 0.323775 54.8488C-1.07924 57.1333 2.44956 60.9053 3.81006 63.9335C11.7286 81.0618 18.8712 98.8275 32.8695 110.898C33.627 111.466 34.2294 112.215 34.6213 113.076C35.0132 113.938 35.182 114.884 35.1122 115.828C32.3806 116.561 29.6383 117.252 26.9173 118.049C18.4142 120.535 16.5541 123.255 17.4044 131.915L23.0803 134.295C31.222 132.574 32.3912 138.418 32.3168 145.622L32.3806 146.897C30.0954 154.165 26.5134 147.96 23.5267 148.045C24.8341 144.188 23.1972 142.286 19.3389 141.244C25.8438 141.552 23.5905 137.462 23.0697 134.306L17.3938 131.926C16.8624 136.176 18.4567 140.554 16.8305 144.74L12.9084 149.447C11.4629 151.668 8.86942 153.495 10.2937 156.885C14.0988 165.853 18.0422 174.736 21.9855 183.65C24.4833 193.957 29.7234 199.663 39.5976 197.75C40.7745 197.705 41.9531 197.733 43.1264 197.835C45.6455 197.708 46.5702 198.898 46.6765 201.916C47.2292 217.854 47.9945 233.675 48.6535 249.549C48.7491 252.099 48.5259 255.33 51.502 255.245C54.4781 255.16 54.0742 251.887 53.9998 249.379C53.4152 234.621 53.1814 219.851 52.3417 205.082C52.0016 199.302 53.479 198.112 58.2726 198.197C64.3736 198.313 71.6863 201.522 75.534 192.289C75.9166 191.662 76.2993 191.024 76.6713 190.387L88.7245 195.073C89.5535 195.562 90.9353 195.434 90.8503 197.028C90.5314 203.074 92.6359 208.716 92.8485 214.687C93.6138 235.598 94.0708 256.52 94.8999 277.377C95.038 280.831 95.6439 284.114 93.922 287.217C91.9025 289.48 89.8724 286.792 87.7572 287.217C85.6421 287.642 83.2293 288.205 83.8777 290.404C85.8228 297.066 81.0398 296.918 78.2444 298.543C73.759 301.146 69.1141 303.399 64.4799 305.62C63.417 306.109 62.4179 307.745 61.0043 305.715C59.2399 303.155 57.89 304.355 56.3913 306.65C54.5844 309.402 53.5109 313.78 49.1743 312.569C47.5799 314.365 48.6428 316.553 48.5791 318.53C48.4515 322.408 50.2372 326.371 48.0689 330.143C45.8049 330.451 46.1131 332.024 46.7296 333.756C45.7411 338.208 43.9448 343.319 48.7066 345.922C51.9909 347.739 56.37 348.876 59.3993 345.412C62.2266 342.161 65.2877 338.144 62.2053 332.757C59.8989 326.382 60.2177 321.696 66.9883 318.944C74.2266 316.001 81.1142 311.889 88.0974 308.17C90.4889 306.905 92.2533 306.172 91.9769 310.529C91.3817 319.996 97.6421 316.904 101.745 317.425C106.666 318.073 107.314 314.481 106.762 309.987C106.209 305.492 108.069 305.205 111.194 306.14C119.612 308.669 128.051 311.134 136.533 313.355C156.091 318.487 175.34 325.171 195.131 329.155C199.031 329.941 197.044 333.246 196.852 335.467C196.757 336.529 194.163 336.168 194.61 338.463C194.695 339.6 195.12 340.886 194.79 341.831C193.419 345.784 193.111 349.779 196.555 352.074C199.744 354.199 204.25 355.432 206.897 352.605C209.543 349.779 213.274 345.306 210.16 339.621C209.15 333.501 208.034 327.402 207.184 321.239C206.78 318.147 196.959 307.989 195.226 309.732C191.751 313.228 189.008 310.284 186.17 309.572C165.083 304.26 144.356 296.822 122.663 295.175C114.935 294.58 108.154 286.813 107.782 277.664C107.414 267.981 107.035 258.301 106.645 248.625C106.464 245.437 106.294 242.186 106.113 238.966L105.922 233.431L105.795 226.471L105.465 212.445C105.521 212.314 105.553 212.174 105.561 212.031C105.492 211.778 105.406 211.529 105.306 211.287L105.975 208.971C107.516 207.154 106.847 205.156 106.315 203.18L106.188 200.63C106.762 197.708 106.188 194.541 107.867 191.843C108.632 190.589 111.949 190.429 109.833 187.954C108.314 186.179 106.411 188.315 104.997 189.441C104.11 190.125 103.379 190.991 102.855 191.98C102.33 192.97 102.024 194.061 101.957 195.179C97.8334 198.494 97.876 203.679 98.046 208.45C98.7582 228.171 99.8317 247.871 100.586 267.591C100.756 272.022 99.7998 276.357 96.9512 279.757C98.535 275.762 95.984 272.32 95.8884 268.505C95.1868 246.67 94.3897 224.824 93.6244 202.989C93.4118 199.62 95.1868 196.953 95.9946 193.946C96.7918 191.928 100.756 192.225 99.0664 188.379C106.592 180.027 115.711 178.168 125.809 178.678C147.842 179.74 169.887 180.325 191.921 181.111L194.046 181.855C194.024 182.169 194.068 182.485 194.176 182.781C194.284 183.077 194.453 183.347 194.673 183.573C194.893 183.799 195.158 183.975 195.452 184.091C195.745 184.207 196.059 184.26 196.374 184.245C195.152 186.583 193.281 186.742 191.134 186.647C178.018 186.052 164.902 185.414 151.807 185.085C142.103 184.84 132.388 185.085 122.673 185.085C149.246 186.402 175.818 186.657 203.166 189.197L196.916 184.394C198.309 184.469 198.819 183.725 198.489 182.184C199.999 182.301 201.508 182.343 203.007 182.535C221.012 184.883 239.06 186.955 257.023 189.707C274.22 192.331 291.96 188.581 308.807 196.528C314.323 199.142 321.051 198.388 327.237 199.079C329.937 199.387 331.755 200.47 331.393 204.062L321.827 203.297C325.218 206.803 329.044 208.312 332.594 210.437C338.695 214.103 344.286 218.81 350.323 222.72C362.302 230.509 373.261 240.39 386.153 246.33C386.228 247.084 386.292 247.839 386.355 248.593L385.112 252.11C383.337 253.438 384.134 255.128 384.633 256.775C384.41 261.025 382.72 265.413 388.343 267.4C395.932 270.046 401.48 262.332 398.217 254.565C393.285 232.251 386.015 212.53 369.742 211.914C374.982 217.227 381.668 220.202 384.867 227.852C381.113 225.862 377.508 223.603 374.079 221.094C363.928 214.06 354.384 205.358 341.65 205.454L336.219 204.476C336.442 198.813 341.087 201.289 343.319 199.376L343.393 199.302H343.33C342.894 199.025 342.267 198.866 342.065 198.441C341.321 197.081 341.002 194.807 341.99 194.308C344.286 193.139 346.71 193.521 349.058 195.168C354.469 198.983 358.571 205.656 365.799 205.645C366.426 207.675 367.702 207.993 369.54 207.409L366.49 205.549L354.235 194.01C355.648 194.01 356.361 194.223 356.924 194.01C362.238 191.758 363.301 200.385 367.935 199.812C373.633 204.954 380.435 203.148 386.834 203.743C389.289 203.977 393.03 206.155 392.478 200.099C396.091 206.984 394.476 211.595 388.226 212.297C392.669 212.297 396.538 216.302 401.246 214.57C412.609 218.385 417.286 228.022 418.455 240.783C418.572 242.101 419.262 243.355 419.379 244.672C419.613 247.297 420.24 247.361 422.568 246.797C425.682 246.096 429.424 245.735 431.603 249.9C431.805 255.404 428.563 253.693 426.171 253.173C423.376 252.556 420.793 253.502 419.709 256.073C418.89 258.028 419.358 262.927 419.89 263.065C424.747 264.266 429.519 268.378 434.77 264.584C435.323 264.149 436.439 264.234 435.961 262.852L436.162 262.969C440.467 262.119 439.84 257.253 441.477 254.267C442.317 252.79 441.817 250.017 444.028 249.953C446.515 249.847 446.207 252.694 446.961 254.384L445.048 258.209L444.283 263.926C443.071 269.865 440.255 273.244 434.621 271.502C427.181 269.185 419.464 267.634 412.651 272.405C408.304 275.465 404.605 274.849 400.099 274.381C386.726 273.15 373.573 270.174 360.973 265.53C359.286 264.928 357.496 264.665 355.707 264.756C353.918 264.847 352.164 265.291 350.547 266.061C342.043 269.897 332.945 270.163 324.155 269.079C313.335 267.729 302.663 264.733 291.96 262.236C251.265 252.758 210.433 244.084 169.462 236.214C165.21 235.396 160.608 234.472 156.378 239.763C168.218 242.547 179.357 245.076 190.475 247.786C234.606 258.475 279.099 266.837 323.56 275.412C330.692 277.462 337.802 279.662 344.988 281.489C348.176 282.308 348.495 284.55 347.018 286.802C344.658 290.404 345.275 293.996 345.955 297.778C344.318 301.019 349.356 306.279 343.617 308.255C338.887 311.644 338.302 316.649 340.789 321.632C347.241 334.702 351.418 348.748 355.266 362.997C356.329 366.801 358.242 369.372 361.696 370.339C362.185 371.009 362.61 371.232 362.759 370.084L362.812 370.021C365.937 368.257 368.881 371.795 371.985 370.424C376.481 375.578 381.168 375.121 385.877 370.956C389.608 367.662 393.083 363.975 396.931 360.904C402.915 356.144 407.879 350.757 408.187 341.704C408.208 340.887 408.442 340.091 408.868 339.393C409.293 338.696 409.894 338.122 410.611 337.73C412.58 336.364 414.227 334.585 415.437 332.517C416.647 330.448 417.39 328.141 417.615 325.755C418.051 322.567 419.826 317.818 423.036 318.423C426.522 319.072 429.636 322.419 432.91 324.597L431.571 330.069C428.382 343.34 427.139 357.206 422.728 370.137L420.432 381.73C418.954 384.025 415.532 383.132 414.618 386.352C415.606 386.15 416.871 386.118 416.68 387.51C416.456 389.115 415.617 388.286 414.968 387.85C418.54 390.73 417.094 395.415 417.774 399.336C412.46 423.392 408.899 447.926 402.352 471.589C401.006 476.64 399.652 481.694 398.292 486.752C393.424 492.266 391.967 500.947 385.388 504.942C383.277 506.306 381.418 508.024 379.893 510.021C377.65 512.827 375.216 513.209 372.176 512.306C367.978 511.095 357.37 519.382 357.094 524.451C356.839 528.892 354.968 535.682 358.965 537.201C364.821 539.518 371.528 544.331 377.767 539.943C383.326 536.022 390.214 532.027 388.556 521.763C388.109 518.957 390.681 518.001 392.095 516.556C403.107 505.208 415.542 496.06 426.182 483.851C440.425 467.509 457.006 453.866 472.747 439.288C479.773 432.764 488.234 428.301 493.516 419.312C494.483 417.676 495.642 415.062 497.661 415.466C505.814 417.219 514.402 416.624 522.023 421.278C521.13 435.282 522.469 449.148 524.149 462.961C524.691 467.573 526.7 471.759 530.526 474.288L530.59 474.341C531.483 476.658 533.353 477.72 535.15 478.591C551.518 486.858 568.025 487.092 584.33 478.687C591.94 474.734 595.894 467.211 596.563 457.595C596.914 452.389 597.127 447.161 597.265 441.934C597.339 439.171 597.871 437.375 600.73 438.438C610.296 439.437 618.927 444.558 628.365 446.343C632.064 447.044 633.903 450.275 634.19 454.843C634.604 461.219 635.465 467.509 636.135 473.842C637.028 484.779 637.924 495.709 638.824 506.632L639.207 509.99L639.302 512.37C639.653 522.889 640.025 533.397 640.365 543.917C640.418 545.649 640.801 547.912 640.046 549.027C634.636 556.89 632.819 567.771 624.634 573.307C623.688 573.944 623.104 575.825 621.796 575.113C615.547 571.702 612.56 576.94 608.585 580.872C603.398 586.015 604.11 592.411 605.035 598.521C605.874 604.057 611.125 601.974 614.303 603.504C616.056 604.145 617.874 604.594 619.724 604.843C625.719 606.256 636.358 597.862 636.082 590.934C635.784 583.39 638.781 578.715 643.192 574.156C646.541 570.682 649.464 566.666 652.567 562.883C655.838 560.427 658.506 557.259 660.369 553.618C661.074 553.103 661.739 552.535 662.356 551.917C686.123 524.624 709.892 497.352 733.666 470.102C735.09 468.476 736.281 465.373 738.821 466.308C744.709 468.433 747.685 464.109 751.14 460.029C754.987 455.492 754.647 450.221 753.84 444.813C753.032 439.405 748.674 441.679 746.027 440.255C744.401 439.383 742.424 439.383 740.606 439.001C733.751 437.556 725.035 445.376 725.258 453.441C725.418 459.614 722.654 462.823 718.233 465.82C718.084 459.636 715.32 454.843 714.109 449.531C711.409 437.722 708.929 425.854 706.668 413.925C705.085 405.425 702.417 397.254 702.172 388.424C702.055 384.067 709.071 378.946 700.238 375.174C697.719 374.111 697.049 366.419 695.986 361.637C693.265 349.28 690.799 336.848 688.238 324.448C687.579 320.75 689.705 320.899 691.841 320.889C718.945 320.75 746.048 320.325 773.131 320.549C788.564 320.687 804.051 320.963 819.314 324.299C830.283 327.285 838.446 336.657 848.618 341.438C851.317 342.713 852.221 344.987 850.648 348.472C848.936 352.255 849.691 355.485 853.602 356.973C854.135 357.144 854.587 357.501 854.876 357.98C855.165 358.458 855.272 359.025 855.176 359.576C854.113 365.717 854.506 371.869 854.931 378.032C855.93 392.589 852.476 406.838 852.625 421.331L852.21 425.39C852.11 425.555 852.035 425.734 851.987 425.921L851.03 438.82H850.935C850.191 442.847 844.961 444.133 846.598 449.669C845.067 448.511 846.513 446.003 844.791 446.163C843.728 446.269 843.728 447.979 843.728 449.478C843.728 454.599 842.782 458.509 837.202 454.557C836.784 454.209 836.285 453.974 835.751 453.874C835.216 453.773 834.665 453.811 834.15 453.984C833.634 454.156 833.172 454.457 832.806 454.859C832.439 455.26 832.182 455.749 832.058 456.278C830.995 459.806 829.496 458.722 827.54 457.765C817.889 453.016 807.526 451.603 797.45 448.808C789.138 446.492 778.541 451.741 772.61 440.233C772.557 440.127 772.302 440.159 772.142 440.138C766.924 439.288 760.27 445.748 759.473 451.921C758.803 457.234 758.92 462.834 755.221 467.084C754.754 467.615 755.221 469.209 755.221 470.272C754.84 472.339 754.595 474.43 754.488 476.53C754.488 480.249 754.732 483.596 758.984 484.818C769.039 487.729 772.111 484.913 771.42 472.609C772.217 470.952 773.545 469.23 771.675 467.509C770.686 466.574 768.89 466.138 769.751 464.215C770.612 462.292 772.461 463.503 773.779 463.737C792.826 467.02 811.82 470.633 830.899 473.544C835.098 474.192 835.927 475.839 835.406 479.92C834.885 484 833.673 488.547 839.137 490.396C842.889 491.671 846.343 493.456 850.254 491.321C851.679 490.534 852.763 489.897 852.965 487.697C853.135 485.817 852.752 482.799 854.644 482.385C856.536 481.97 857.461 484.743 858.715 486.252C859.778 487.506 860.745 488.813 861.766 490.088C862.36 491.225 863.027 492.321 863.764 493.371C870.29 501.542 875.041 511.498 882.779 518.437C881.886 523.038 878.177 526.746 879.495 532.069C877.688 536.797 877.294 542.1 880.834 545.223C882.457 546.625 884.464 547.506 886.595 547.752C888.725 547.999 890.88 547.599 892.781 546.605C897.107 544.246 896.352 538.986 895.821 534.354C896.883 533.015 897.946 530.624 896.979 529.774C891.728 525.301 895.661 519.648 895.257 514.643C895.034 511.828 895.895 508.906 893.801 506.579C891.675 504.815 891.867 500.203 888.136 500.405C884.873 496.325 881.386 492.479 878.421 488.133C874.095 481.758 869.386 476.349 862.403 473.948C860.66 473.353 857.408 472.97 858.152 469.475C858.991 465.735 861.861 469.475 862.339 469.156C863.366 432.891 866.8 396.735 872.618 360.925C872.288 375.163 882.598 375.195 889.89 379.19C892.866 380.913 895.98 382.384 899.201 383.589C902.304 384.652 902.793 386.49 902.464 389.965C900.795 407.305 899.413 424.678 897.925 442.029C897.702 444.569 897.861 446.991 900.678 447.087C903.176 447.172 903.93 445.249 904.196 442.539C905.769 426.357 907.629 410.217 909.032 394.013C909.394 389.933 909.649 388.307 913.815 389.529C916.781 390.4 920.086 388.934 922.318 385.767L928.589 384.779C929.504 385.311 930.184 384.981 930.715 384.036C935.466 378.818 937.72 371.795 940.728 365.324C943.916 361.584 943.768 354.242 949.996 353.711C959.02 352.648 968.065 350.619 977.057 350.714C986.932 350.831 997.082 342.989 1006.77 351.585C1006.97 351.766 1007.83 351.415 1008.03 351.054C1010.87 346.305 1014.41 348.536 1017.6 349.992C1025.89 353.689 1033.96 358.078 1042.35 361.414C1046.95 363.242 1047.67 365.526 1045.23 369.914C1044.9 371.787 1044.75 373.687 1044.78 375.588C1045.19 379.413 1044.78 383.727 1049.6 384.939C1058.32 387.117 1061.03 384.386 1060.23 373.58C1061.17 372.518 1061.73 370.828 1061 369.914C1055.91 363.401 1060.26 354.986 1057.2 347.473C1054.71 341.385 1053.4 334.989 1048.7 330.473C1042.19 324.278 1034.72 322.865 1026.52 323.088C1016.27 323.354 1015.14 321.643 1015.62 309.997C1015.75 306.895 1016.42 303.739 1016.09 300.711C1015.15 292.21 1019.01 290.84 1025.36 290.564C1063.32 288.906 1101.12 284.411 1138.96 280.682L1141.17 280.236L1145.98 279.874L1146.77 279.651L1146.05 278.876C1145.92 278.592 1145.73 278.507 1145.47 278.621C1144.41 277.497 1143.1 276.634 1141.65 276.101C1140.2 275.568 1138.64 275.38 1137.11 275.55C1130.22 275.964 1123.29 276.262 1116.46 276.867C1084.61 279.701 1052.77 282.58 1020.93 285.506C1018.66 285.718 1017.35 285.293 1017.35 282.403C1017.93 274.53 1018.35 266.688 1019.48 258.825C1020.23 253.513 1024.62 249.741 1023.85 245.204C1022.41 236.841 1026.33 238.658 1030.48 238.775C1035.47 238.924 1034.73 243.758 1035.3 246.67C1036.43 252.588 1038.9 255.17 1044.18 255.17C1051.75 255.255 1059.44 255.17 1066.86 256.658C1078.77 259.027 1086.66 254.437 1091.14 241.548C1092.01 239.051 1093.66 236.926 1094.61 234.461C1095.57 231.996 1097.37 231.592 1098.67 232.453C1101.11 234.057 1103.76 234.111 1106.27 234.982C1140.08 246.819 1171.58 265.084 1203.51 282.116C1209.88 285.538 1214.42 280.841 1219.66 279.056C1220.36 278.939 1219.94 277.207 1218.7 276.729ZM251.942 42.1833C253.653 41.8645 255.131 40.5788 256.651 38.6981C255.131 40.5788 253.643 41.8645 251.942 42.1833ZM329.066 157.119C327.673 154.537 327.79 154.526 327.482 151.413C326.291 139.151 325.632 126.868 325.356 114.532C325.271 111.27 325.813 109.453 328.545 108.73C329.342 108.996 330.128 109.325 330.936 109.517C335.921 110.696 338.164 112.906 333.36 117.847C325.484 130.003 328.226 143.699 329.066 157.119ZM420.58 149.553C419.518 153.049 418.306 156.269 414.543 156.651C409.941 157.65 405.349 158.712 400.726 159.605C398.664 160.009 397.133 160.721 397.356 163.568C395.985 165.353 396.538 168.881 393.53 169.189C392.371 166.395 393.381 161.156 388.215 162.92L386.249 162.718L374.015 162.495L371.082 162.761C367.117 166.278 363.535 170.709 357.934 170.411C349.749 169.986 341.427 171.144 333.487 167.861C333.721 153.623 327.694 139.385 333.36 125.157C334.291 123.198 335.356 121.306 336.548 119.494C339.407 114.596 342.692 113.947 347.496 116.551C354.702 120.461 362.377 123.309 369.817 126.613L372.814 128.738C373.643 130.194 374.876 129.716 376.003 129.599C390.99 135.857 406.04 141.903 420.559 149.553C420.868 149.564 421.162 149.693 421.378 149.915C421.167 149.698 420.882 149.569 420.58 149.553ZM349.09 300.116C349.304 300.133 349.52 300.115 349.728 300.063C349.527 300.113 349.319 300.131 349.112 300.116H349.09ZM386.196 303.898L381.509 304.069L377.873 303.867C377.395 300.753 375.099 301.742 373.462 301.168C372.293 300.743 370.125 302.783 370.029 299.489C377.969 301.359 386.228 298.426 394.784 301.083C391.765 303.899 388.864 303.335 386.196 303.898ZM405.094 293.496C405.264 293.231 405.456 292.965 405.647 292.721C405.456 292.997 405.264 293.273 405.094 293.528V293.496ZM1004.47 240.826V240.9L1004.39 240.996L1004.47 240.826ZM1004.41 241.007C1002.69 243.025 1003.7 245.777 1002.94 248.444C1000.19 244.938 997.561 241.57 994.669 237.819C998.815 236.586 1001.99 237.203 1004.37 241.007H1004.41ZM995.902 216.504C996.042 216.513 996.181 216.535 996.317 216.568C996.184 216.536 996.049 216.514 995.913 216.504C995.158 216.919 993.936 217.004 993.787 217.96C993.915 217.004 995.137 216.919 995.881 216.504H995.902ZM780.486 212.403C779.567 212.561 778.633 212.618 777.701 212.573C778.626 212.617 779.553 212.56 780.465 212.403H780.486ZM777.202 231.954C777.361 228.426 779.221 229.138 781.018 229.138C790.52 229.138 800.022 229.138 809.524 229.138C800.086 232.761 790.817 236.236 780.996 235.609C778.913 235.481 777.011 235.619 777.181 231.954H777.202ZM748.057 231.135C748.057 228.5 749.12 227.618 751.512 227.81C757.889 228.32 764.266 228.564 770.58 228.872C772.302 228.947 773.354 229.18 773.301 231.73C773.248 234.281 772.334 234.982 770.261 234.918C763.055 234.716 755.848 234.663 748.642 234.546H746.984L743.955 233.717C741.01 233.781 738.056 233.877 735.111 233.834C738.056 233.834 741.01 233.781 743.955 233.717C744.805 231.73 747.313 233.388 748.036 231.135H748.057ZM731.593 210.395C734.282 210.395 736.971 210.469 739.66 210.395C736.971 210.48 734.282 210.395 731.593 210.395ZM671.2 219.256C672.348 217.524 673.644 219.256 674.601 220.149C677.79 223.124 680.904 226.227 684.954 230.179C680.149 229.234 676.1 228.256 672.007 227.703C670.041 227.448 669.807 225.578 669.786 224.516C669.761 222.676 670.251 220.865 671.2 219.288V219.256ZM636.029 256.86C636.029 256.785 636.029 256.732 635.975 256.668C635.922 256.605 636.007 256.817 636.029 256.892V256.86ZM468.517 237.713C468.517 233.367 469.814 229.042 468.676 224.686V223.464L470.738 212.764V224.038C469.272 228.437 471.334 233.601 468.538 237.713C467.572 238.514 466.337 238.917 465.084 238.839C466.34 238.931 467.583 238.539 468.559 237.745L468.517 237.713ZM463.33 222.189C459.684 219.681 456.655 215.994 453.36 212.785C456.698 216.026 459.727 219.713 463.373 222.221L463.33 222.189ZM436.088 368.236C438.83 354.422 441.743 340.609 444.134 326.743C444.602 323.97 445.431 323.556 447.195 323.757C449.725 324.012 449.385 326.031 448.949 328.008C445.505 343.669 443.284 359.64 439.319 375.185C439.319 375.185 439.319 375.248 439.319 375.28C438.894 374.77 438.086 374.685 437.555 374.335C435.238 372.826 435.62 370.584 436.088 368.236ZM433.824 380.933C433.952 378.245 435.546 380.561 436.343 380.189C437.45 379.815 438.405 379.092 439.064 378.128C439.16 380.912 440 384.036 440.318 387.393C438.68 386.846 437.079 386.193 435.525 385.438C433.962 384.577 433.697 382.527 433.824 380.933ZM422.366 479.378L421.123 477.731L460.386 440.435L461.502 442.04L422.366 479.378ZM469.888 418.313C466.869 427.706 460.258 433.816 453.647 439.893C442.338 450.306 431.263 461.049 420.081 471.621C419.103 472.535 418.231 474.628 416.892 473.672C416.031 473.045 415.968 470.941 415.606 469.687C417.998 457.797 420.325 446.099 422.696 434.421C424.641 424.858 426.873 415.296 428.52 405.648C429.179 401.833 431.007 400.399 433.665 400.856C445.814 402.981 458.111 404.702 469.962 408.123C474.958 409.558 470.898 415.242 469.888 418.313ZM553.591 386.416C543.514 387.712 533.321 388.541 525.095 396.85C523.054 398.922 521.311 401.047 521.438 403.948C521.64 408.718 519.44 407.05 516.942 406.36C518.866 403.937 520.418 401.578 520.577 398.316C521.034 388.913 513.605 383.441 502.444 385.204C501.828 385.3 501.222 385.342 500.606 385.406C500.988 386.703 500.042 386.394 499.458 386.533L498.597 387.595C496.397 391.675 490.349 392.493 491.316 399.389C491.518 400.856 489.722 400.452 488.956 399.952C487.893 399.272 485.683 400.069 486.044 397.115C486.373 394.47 486.363 391.803 486.501 389.093L486.703 387.648C486.852 386.841 487.001 386.044 487.139 385.247L498.597 387.595L499.458 386.533C499.532 385.778 499.638 385.066 500.521 385.279C500.672 383.454 501.007 381.649 501.52 379.892C503.901 373.856 502.051 371.391 496.62 370.531C492.421 369.904 488.329 368.31 484.195 367.141C483.052 366.478 482.081 365.556 481.361 364.448C480.64 363.341 480.191 362.079 480.049 360.766L478.338 359.65C477.275 370.637 476.063 381.613 475.149 392.589C474.905 395.585 474.427 396.35 471.61 395.989C463.719 395.045 455.952 393.264 448.439 390.676C442.519 388.551 441.53 382.463 442.423 377.065C445.123 360.745 448.62 344.594 451.829 328.39C452.059 327.526 452.336 326.674 452.659 325.84C455.72 330.526 462.554 323.832 464.807 331.302C465.732 334.362 468.581 335.201 469.877 332.693C471.716 329.134 474.82 330.005 477.318 328.008C474.033 332.863 475.798 335.445 479.762 337.103C481.261 337.741 482.43 337.741 482.621 335.456C483.11 329.75 487.309 332.715 487.936 333.639C489.785 336.2 492.708 335.488 494.239 337.007C499.978 342.734 505.048 339.887 510.586 336.88C512.871 335.637 516.251 334.277 516.836 339.642L504.081 346.018C511.766 348.525 517.165 345.858 522.235 341.481C524.01 342.819 525.424 345.795 528.06 343.319C527.56 351.628 532.248 359.703 528.921 368.14C531.221 367.819 533.54 367.656 535.862 367.651C537.488 367.747 540.039 370.084 540.294 366.992C540.57 363.571 538.795 356.856 538.508 356.898C531.376 357.961 534.257 351.787 533.598 348.345C538.455 352.435 540.251 344.753 544.227 344.658C547.033 344.583 550.604 339.345 551.667 347.102C551.805 348.09 555.132 348.493 556.981 349.173C556.439 352.01 555.812 354.826 555.366 357.674C555.079 359.544 554.973 361.01 552.624 360.458C550.859 360.043 548.372 358.418 547.309 361.17C546.14 364.092 547.766 366.727 549.435 369.001L549.69 371.126L548.893 373.453C545.704 380.189 546.48 381.475 553.527 381.56C555.302 381.56 558.119 381.199 558.246 383.345C558.363 386.118 555.674 386.139 553.591 386.416ZM628.599 430.702C618.151 429.576 607.734 428.354 597.616 424.933C598.051 418.717 595.49 412.182 602.122 407.093C605.045 404.84 603.313 397.53 602.473 392.791C601.963 389.933 598.413 392.43 596.255 392.068C591.642 391.314 586.987 390.825 582.353 390.22C579.785 389.529 577.18 388.983 574.551 388.583C567.802 387.914 563.125 385.098 563.922 376.024C563.508 376.077 563.093 376.109 562.7 376.12C563.093 376.12 563.508 376.12 563.922 376.024C563.996 374.494 564.602 372.613 564.039 371.508C562.243 367.938 564.581 363.985 563.635 361.138C560.319 351.203 568.535 361.807 568.046 357.599C568.046 357.504 568.142 357.387 568.237 357.27C567.175 357.27 566.813 356.686 567.249 355.496C564.772 356.027 564.06 354.486 564.22 351.925C565.283 353.041 568.471 351.713 567.408 355.443C568.067 355.772 569.088 355.825 568.471 357.121C574.253 356.239 579.238 352.467 584.787 350.619C586.838 349.939 588.985 342.639 588.082 337.794C587.338 333.798 583.702 335.031 581.279 334.659C572.468 333.31 563.614 332.258 554.781 331.1C553.506 328.836 551.954 328.358 550.041 330.037C550.126 330.196 550.2 330.335 550.285 330.462C550.2 330.335 550.126 330.196 550.041 330.048L548.68 329.931C547.394 327.625 545.864 327.2 544.025 329.123L541.516 328.858C539.933 326.127 537.966 326.371 535.84 327.901C535.49 327.459 534.99 327.16 534.434 327.06C533.878 326.96 533.305 327.066 532.822 327.359C532.035 328.22 531.334 328.422 530.696 328.093C531.291 328.464 531.993 328.22 532.822 327.359C532.099 325.181 531.026 325.372 529.761 326.733C529.247 326.25 528.606 325.923 527.913 325.792C527.221 325.66 526.505 325.728 525.849 325.989C518.111 321.314 509.343 322.164 501.137 319.932C488.776 316.585 476.138 314.566 464.531 308.106C461.906 306.64 461.247 303.527 458.388 300.371C470.802 302.496 481.165 307.256 491.847 310.539C522.172 319.869 553.059 325.967 583.979 331.875C590.898 333.203 597.796 334.967 604.588 336.805C608.5 337.868 610.785 334.5 611.72 331.95C612.879 328.815 609.254 329.028 607.405 328.273C606.923 328.109 606.429 327.981 605.927 327.891C592.95 324.777 590.898 320.07 594.98 304.621C596.043 300.658 595.596 296.121 595.841 291.934L603.653 283.71C608.308 289.66 606.948 294.495 601.58 298.586C601.034 299.06 600.536 299.587 600.092 300.158C599.146 301.221 597.966 302.283 599.146 304.09C600.326 305.896 601.58 305.822 603.015 304.451C605.949 301.635 608.904 298.862 611.858 296.068C614.282 300.148 613.687 307.054 620.362 307.256C622.307 307.32 621.616 310.444 621.775 312.271C623.405 330.342 625.01 348.405 626.59 366.461C625.165 366.996 623.773 367.617 622.424 368.321C619.798 369.861 616.546 371.423 616.737 375.323C616.897 378.51 625.644 383.016 627.951 381.783C629.237 396.797 630.48 411.8 631.862 426.792C632.117 429.969 631.267 430.989 628.599 430.702ZM638.165 358.747C637.038 342.915 635.703 327.097 634.158 311.294C633.69 306.491 635.221 303.24 638.409 300.668C641.099 297.236 640.216 293.379 639.472 289.533C639.313 288.385 639.164 287.238 639.015 286.101C641.29 286.165 642.619 284.454 643.894 282.648C644.064 283.009 644.223 283.36 644.383 283.71C644.542 284.061 644.457 284.539 644.5 284.964C645.924 288.842 649.208 289.331 651.536 287.95C656.309 285.113 653.556 279.226 654.374 274.742C654.831 272.224 654.002 270.556 651.387 271.183C646.36 267.559 640.376 269.568 635.093 267.506L624.252 264.956C625.389 262.831 628.578 265.243 629.162 261.949C629.332 262.119 629.492 262.098 629.641 261.896C630.884 265.658 633.254 263.596 635.029 263.022C637.155 262.342 636.836 260.239 636.209 258.315L639.132 259.378C639.951 266.741 645.51 264.637 648.698 264.457C652.376 264.266 650.441 259.739 650.271 256.913C655.937 254.501 662.112 258.145 663.483 264.892C664.089 267.857 666.055 268.165 668.011 268.495C669.967 268.824 671.667 269.143 671.444 272.182C671.125 276.559 669.063 273.117 667.915 273.148C666.119 273.212 665.184 272.84 665.906 275.869C668.734 287.758 671.221 299.776 673.783 311.74C664.918 317.542 675.473 317.924 675.76 321.165C678.884 336.742 681.946 352.34 685.166 367.917C685.91 371.519 686.431 373.102 681.85 372.688C668.851 371.498 656.266 367.725 643.458 365.484C639.696 364.772 638.409 362.955 638.112 358.747H638.165ZM687.132 509.692C690.608 505.442 694.254 501.043 697.953 496.729L687.132 509.692ZM690.629 395.585C695.2 418.324 701.152 440.744 703.448 463.992C703.799 467.637 705.489 472.641 704.766 474.214C702.736 478.634 701.981 484.34 699.303 487.591C685.155 504.698 670.349 521.093 655.724 537.711C655.533 537.924 655.097 537.86 655.448 537.786C651.951 523.973 650.856 509.671 649.793 495.411C648.73 481.492 647.178 467.626 646.445 453.707C646.211 449.361 645.584 443.942 650.261 441.084C651.526 440.308 651.568 438.013 650.654 437.63C643.278 434.517 644.277 426.729 643.575 420.353C642.077 407.273 641.29 394.098 640.068 380.975C639.749 377.628 639.94 376.088 643.522 377.055C657.499 380.827 671.55 384.301 685.57 387.893C689.088 388.796 689.96 392.504 690.576 395.585H690.629ZM737.056 305.142C721.198 307.097 705.308 308.797 689.428 310.72C687.207 310.986 685.527 310.72 684.794 307.989C683.263 300.073 681.69 292.168 680.213 284.252C679.15 278.695 673.485 273.18 681.276 267.591C707.848 280.183 736.004 291.945 764.904 301.189C755.572 302.517 746.304 303.994 737.003 305.142H737.056ZM843.484 325.776C844.032 325.735 844.565 325.575 845.046 325.309C844.549 325.583 843.997 325.743 843.431 325.776H843.484ZM915.76 313.238L915.091 315.523L896.426 312.601L897 310.476C898.372 309.796 900.062 311.931 901.252 309.838L902.708 309.583C906.386 313.94 911.371 312.123 915.729 313.249C916.463 312.951 917.243 312.779 918.035 312.739C917.24 312.774 916.457 312.943 915.718 313.238H915.76ZM948.636 347.909C949.03 346.66 949.153 345.342 948.997 344.041C949.14 345.345 949.002 346.663 948.593 347.909H948.636ZM952.749 336.572C950.188 336.157 950.857 333.798 950.878 332.067C950.878 330.037 952.536 330.643 953.578 330.441C959.466 329.378 965.355 328.316 971.254 327.253C980.692 326.191 990.163 324.267 1000.56 329.378C984.158 333.65 968.331 334.149 952.706 336.572H952.749ZM1004.13 296.524C1003.37 303.643 1002.91 310.816 1002.58 317.977C1002.44 320.995 1001.62 321.781 999.112 321.005C996.104 320.07 993.224 321.675 990.29 322.132L985.072 321.675H983.031C974.092 322.737 965.11 323.577 956.203 324.979C945.086 326.733 945.107 326.945 946.042 314.354C947.732 309.211 946.319 304.111 945.883 299C944.161 298.437 943.459 297.608 943.427 296.684C943.427 297.608 944.161 298.437 945.883 299C955.513 296.928 965.429 297.162 974.932 294.144L979.991 293.815L984.242 293.177C989.557 292.891 994.946 292.774 1000.28 292.253C1003.22 291.966 1004.47 292.582 1004.09 296.524H1004.13ZM1004.29 287.631L1001.37 288.024C998.308 287.313 995.107 287.527 992.172 288.64L990.195 288.8C975.835 291.509 961.741 287.737 947.541 286.452C947.483 286.314 947.393 286.193 947.279 286.099C947.164 286.005 947.028 285.94 946.882 285.91C941.567 278.822 934.563 280.948 928.154 282.148C917.844 284.082 907.534 283.901 897.181 283.944C892.324 283.944 886.839 281.33 882.96 287.27C883.151 290.797 881.057 290.914 878.878 290.914C863.115 288.885 847.321 289.735 831.569 290.914C825.266 291.371 819.069 293.656 812.809 294.994C809.843 295.643 806.846 295.961 803.955 294.463C794.559 290.51 785.716 284.826 775.809 282.52C749.96 271.193 724.142 259.814 698.218 248.636C694.711 247.116 691.629 248.402 690.47 253.151L673.846 246.521C676.132 244.056 677.758 242.112 680.341 241.623C681.095 241.485 682.211 241.262 681.467 239.923C681.201 239.445 680.298 239.445 679.692 239.221C677.216 237.096 672.72 239.668 671.519 234.557C672.422 230.562 674.707 232.984 676.546 233.101C684.837 233.664 692.489 238.244 700.929 238.106C721.751 237.798 742.658 237.043 763.352 239.583C784.897 242.271 805.337 236.331 826.063 231.879C830.793 230.817 835.459 231.21 840.146 231.359C860.851 232.039 881.599 232.878 902.272 233.696C929.993 234.759 957.713 235.959 985.433 236.979C987.814 237.064 989.259 238.159 991.034 239.87C1003.79 252.121 1008.51 267.315 1004.59 285.984C1004.48 286.526 1004.38 287.047 1004.28 287.61C1004.89 288.26 1005.74 288.642 1006.64 288.672C1005.73 288.656 1004.87 288.281 1004.25 287.631H1004.29ZM1045.59 333.745C1048.65 336.561 1051.6 339.419 1051.83 344.371C1052.27 344.691 1052.58 345.153 1052.71 345.677C1052.84 346.201 1052.78 346.753 1052.54 347.24C1052.03 346.517 1051.48 345.795 1051 345.061C1036.31 349.12 1026.79 337.135 1015.43 330.728C1025.96 327.827 1036.26 325.149 1045.55 333.745H1045.59ZM1051.87 162.336C1052.85 161.784 1053.96 161.528 1055.08 161.598C1056.2 161.667 1057.27 162.06 1058.17 162.729C1055.49 163.972 1053.93 164.801 1051.83 162.336H1051.87ZM1078.06 180.643C1080.19 179.411 1081.64 178.37 1083.82 180.728C1081.7 182.003 1080.23 182.652 1078.06 180.643ZM1089.08 195.87C1089.23 195.732 1089.37 195.551 1089.53 195.402C1089.37 195.519 1089.23 195.678 1089.08 195.817V195.87Z" fill="#DF1683"/>
<path d="M524.148 7.19783C555.071 15.9743 586.537 22.365 616.547 35.1463C620.084 36.7652 623.579 38.5227 627.17 39.9819C635.955 43.5713 644.762 47.2672 654.121 42.4103C659.687 40.4718 665.211 38.3629 670.831 36.6587C679.148 34.1344 679.17 34.2516 679.127 43.4861C679.127 44.6364 679.276 45.7867 679.35 46.9477C678.915 50.143 680.413 53.9774 676.822 55.9798C670.214 60.9113 672.573 68.3138 674.124 74.3423C675.313 79.1033 673.401 80.424 670.937 80.6264C667.495 80.9246 665.753 84.0241 663.044 85.2383C661.45 85.952 661.557 90.3296 659.368 88.21C656.309 85.249 652.867 81.8193 651.635 77.6974C650.849 75.0985 652.697 72.5103 648.809 75.1837C647.332 76.2488 646.398 74.3849 645.335 73.5754C638.813 68.6333 631.886 64.7776 624.089 63.3077C621.295 62.7858 618.236 63.3078 615.708 62.1042C611.607 60.1976 609.004 61.4225 606.975 65.5551C602.397 69.5173 602.408 76.4512 599.454 81.2442C596.501 86.0372 596.533 89.1686 600.336 92.5982C600.549 96.4748 601.943 100.192 604.33 103.249L608.665 111.291C609.876 116.616 614.38 117.682 617.471 120.643C616.409 123.007 612.754 120.057 612.691 123.071C612.616 125.925 614.815 128.194 617.163 129.334C621.837 131.581 626.235 134.659 631.568 134.968C635.116 135.139 637.442 134.787 635.647 129.728C642.382 133.072 648.395 131.23 653.844 126.139L657.955 126.501C657.849 128.237 657.616 129.973 657.669 131.698C657.669 132.763 657.084 134.255 658.37 134.659C658.922 134.83 659.772 133.988 660.42 133.488C670.448 125.723 678.84 115.21 690.249 109.789L693.436 109.896C697.866 110.077 702.19 113.187 706.705 110.449C715.543 103.856 724.976 97.796 724.636 83.1401V83.0549L725.699 81.9898L730.798 79.7211C737.235 76.2914 738.924 61.0178 733.326 56.2887C729.374 52.9336 731.329 48.5134 731.839 44.6577C732.402 40.4718 735.451 43.1559 737.15 43.3476C743.515 44.0167 749.84 45.0157 756.102 46.3406C801.558 56.1928 847.269 63.7551 892.99 71.36C895.954 71.8499 899.056 72.5103 901 68.3564C900.404 68.057 899.782 67.8145 899.141 67.6321C873.444 62.7645 847.715 58.1739 822.06 53.0082C791.498 46.8625 759.926 46.3086 730.819 31.7379L730.596 29.4906C729.597 26.8704 727.409 26.8065 725.475 26.6361C714.332 25.571 703.008 25.9011 692.438 20.9484C685.968 17.9235 679.435 24.6976 673.136 20.2667C668.066 18.3633 662.763 17.1524 657.371 16.6666C623.866 13.024 590.382 9.36 557.037 4.03445C546.541 2.36223 535.982 1.24387 525.444 0.0509466C522.629 -0.268586 519.335 0.892383 519.017 4.17292C518.73 7.11262 522.204 6.64397 524.148 7.19783ZM664.956 111.089C665.084 111.238 665.222 111.376 665.36 111.515C665.222 111.397 665.084 111.259 664.956 111.11V111.089Z" fill="#DF1683"/>
<path d="M298.919 223.789C301.944 226.283 306.202 226.906 308.942 224.412C311.683 221.918 314.281 218.084 311.268 213.501V211.423C311.355 211.308 311.53 211.111 311.508 211.09C311.349 210.894 311.178 210.706 310.995 210.529C310.7 209.615 310.395 208.711 310.089 207.796C310.569 203.546 315.319 205.583 317 202.403L300.721 201C298.441 205.577 297.68 210.705 298.537 215.704C296.528 218.593 296.321 221.627 298.919 223.789Z" fill="#DF1683"/>
<path d="M385 210.716L377 209C379.251 211.338 382.086 211.187 385 210.716Z" fill="#DF1683"/>
<path d="M372 209H377C376.215 208.341 375.363 208 374.5 208C373.637 208 372.785 208.341 372 209Z" fill="#DF1683"/>
<path d="M414 387V387.441C414.359 387.52 414.7 387.711 415 388C414.749 387.693 414.485 387.408 414.208 387.147L414 387Z" fill="#DF1683"/>
<path d="M342.475 201L343 199L342 200.451L342.475 201Z" fill="#DF1683"/>
<path d="M482.661 343.797C483.541 342.791 482.553 342.112 481.457 342.017C480.361 341.921 479.156 342.197 479.048 343.744L478 359.855L479.903 361C481.192 355.34 478.108 348.981 482.661 343.797Z" fill="#DF1683"/>
<path d="M44.3162 367.853L42.0309 365H44.0897L45.4794 366.833L46.7044 365H48.7426L46.6838 367.853L49 371H46.9412L45.5515 368.922L43.9559 371H42L44.3162 367.853Z" fill="#A9ABC7"/>
<path d="M61.3506 367.853L59.0621 365H61.1331L62.5207 366.833L63.7633 365H65.7411L63.6701 367.853L66 371H63.929L62.5207 368.922L60.926 371H59L61.3506 367.853Z" fill="#A9ABC7"/>
<path d="M52.3333 380.318L50.1131 377H52.1689L53.5463 379.125L54.7797 377H56.743L54.6872 380.318L57 383.955H54.9442L53.5463 381.545L51.953 384H50L52.3333 380.318Z" fill="#A9ABC7"/>
<path d="M65.3572 389.34L63.082 386H65.183L66.5564 388.139L67.7862 386H69.7335L67.6837 389.34L70 393H67.94L66.5564 390.575L64.9678 393H63L65.3572 389.34Z" fill="#A9ABC7"/>
<path d="M52.3333 355.873L50.1131 353H52.1689L53.5463 354.833L54.7797 353H56.743L54.6872 355.853L57 359H54.9442L53.536 356.922L51.953 359H50L52.3333 355.873Z" fill="#A9ABC7"/>
<path d="M74.3436 409.863L72.072 407H74.1278L75.5565 408.843L76.79 407H78.743L76.6872 409.863L79 413H76.9442L75.5565 410.922L73.9736 413H72L74.3436 409.863Z" fill="#A9ABC7"/>
<path d="M71.7059 433.863L69.1059 431H71.4588L73.0471 432.833L74.4588 431H76.7059L74.3529 433.863L77 437H74.6471L73.0588 434.922L71.2353 437H69L71.7059 433.863Z" fill="#A9ABC7"/>
<path d="M57.6824 400.34L55.0706 397H57.4824L59.0588 399.15L60.4588 397H62.7059L60.3529 400.34L63 404H60.6471L59.0588 401.575L57.2353 404H55L57.6824 400.34Z" fill="#A9ABC7"/>
<path d="M39.3299 384.345L37.0613 381H39.1562L40.5255 383.149L41.7518 381H43.6934L41.6496 384.345L44 388H41.9562L40.5766 385.563L38.9416 388H37L39.3299 384.345Z" fill="#A9ABC7"/>
<path d="M25.6628 408.858L23.0818 406H25.4175L26.9825 407.836L28.3839 406H30.6029L28.3723 408.858L31 412H28.6058L27.0292 409.928L25.2307 412H23L25.6628 408.858Z" fill="#A9ABC7"/>
<path d="M18.3436 420.328L16.0617 417H18.1689L19.5463 419.139L20.7797 417H22.7327L20.6769 420.328L23 424H20.9339L19.5463 421.575L17.9633 424H16L18.3436 420.328Z" fill="#A9ABC7"/>
<path d="M25.6628 435.902L23.0818 433.039H25.4175L27.0292 434.843L28.4307 433H30.6496L28.3723 435.863L31 439H28.6058L27.0292 436.922L25.2307 439H23L25.6628 435.902Z" fill="#A9ABC7"/>
<path d="M7.34706 444.853L5.06176 442H7.17206L8.54118 443.833L9.77647 442H11.7324L9.67353 444.853L12 448H9.94118L8.54118 445.922L6.95588 448H5L7.34706 444.853Z" fill="#A9ABC7"/>
<path d="M47.3574 409.863L45.0721 407H47.1309L48.5206 408.843L49.7456 407H51.7426L49.6838 409.863L52 413H49.9412L48.5515 410.922L46.9559 413H45L47.3574 409.863Z" fill="#A9ABC7"/>
<path d="M41.3471 393.863L39.0618 391H41.1721L42.5515 392.843L43.7765 391H45.7426L43.6838 393.863L46 397H43.9412L42.5515 394.931L40.9559 397H39L41.3471 393.863Z" fill="#A9ABC7"/>
<path d="M85.6589 447.853L83.07 445H85.4023L86.965 446.833L88.481 445H90.6968L88.3644 447.853L91 451H88.5977L87.0233 448.922L85.2157 451H83L85.6589 447.853Z" fill="#A9ABC7"/>
<path d="M61.3506 419.34L59.0621 416H61.1331L62.5207 418.15L63.7633 416H65.7411L63.6701 419.34L66 423H63.929L62.5207 420.587L60.926 423H59L61.3506 419.34Z" fill="#A9ABC7"/>
<path d="M46.3506 434.34L44.0621 431H46.1331L47.5207 433.15L48.7633 431H50.7411L48.6701 434.34L51 438H48.929L47.5207 435.575L45.926 438H44L46.3506 434.34Z" fill="#A9ABC7"/>
<path d="M39.3368 419.34L37.0515 416H39.1618L40.5412 418.15L41.7765 416H43.7324L41.6735 419.34L44 423H41.9412L40.5515 420.587L38.9559 423H37L39.3368 419.34Z" fill="#A9ABC7"/>
<path d="M219 380H217.053L215.47 377.919L214.098 380H212L214.31 376.855L212.293 374H214.239L215.46 375.829L216.831 374H218.939L216.67 376.855L219 380Z" fill="#A9ABC7"/>
<path d="M202 380H199.775L197.965 377.919L196.386 380H194L196.628 376.855L194.323 374H196.628L198.023 375.829L199.591 374H201.988L199.395 376.855L202 380Z" fill="#A9ABC7"/>
<path d="M211 393H209.05L207.475 390.573L206.091 393H204L206.303 389.331L204.283 386H206.232L207.455 388.134L208.828 386H210.929L208.657 389.331L211 393Z" fill="#A9ABC7"/>
<path d="M198 402H195.775L193.965 399.919L192.386 402H190L192.628 398.855L190.323 396H192.548L193.942 397.839L195.51 396H197.908L195.314 398.855L198 402Z" fill="#A9ABC7"/>
<path d="M211 368H209.05L207.475 365.919L206.091 368H204L206.303 364.855L204.283 362H206.232L207.455 363.829L208.828 362H210.929L208.657 364.855L211 368Z" fill="#A9ABC7"/>
<path d="M189 423H186.778L184.971 420.592L183.394 423H181L183.636 419.36L181.334 416H183.555L184.948 418.128L186.514 416H188.896L186.318 419.36L189 423Z" fill="#A9ABC7"/>
<path d="M191 447H189.053L187.48 444.584L186.098 447H184L186.31 443.331L184.293 440H186.229L187.46 442.145L188.831 440H190.919L188.65 443.331L191 447Z" fill="#A9ABC7"/>
<path d="M205 413H203.053L201.48 410.573L200.098 413H198L200.31 409.331L198.293 406H200.239L201.47 408.145L202.841 406H204.899L202.63 409.331L205 413Z" fill="#A9ABC7"/>
<path d="M224 397H222.053L220.47 394.584L219.088 397H217L219.3 393.331L217.282 390H219.229L220.45 392.145L221.821 390H223.899L221.64 393.331L224 397Z" fill="#A9ABC7"/>
<path d="M238 422H235.775L233.977 419.57L232.398 421.967H230L232.64 418.344L230.334 415H232.571L233.977 417.118L235.545 415H237.931L235.337 418.344L238 422Z" fill="#A9ABC7"/>
<path d="M245 434H243.07L241.51 431.573L240.14 434H238L240.29 430.331L238.29 427H240.22L241.44 429.145L242.8 427H244.87L242.67 430.376L245 434Z" fill="#A9ABC7"/>
<path d="M238 449H235.775L233.977 446.584L232.398 449H230L232.64 445.331L230.334 442H232.571L233.977 444.145L235.545 442H237.931L235.337 445.331L238 449Z" fill="#A9ABC7"/>
<path d="M257 458H254.778L252.971 455.936L251.394 458H249L251.636 454.88L249.334 452H251.555L252.948 453.824L254.514 452H256.896L254.318 454.88L257 458Z" fill="#A9ABC7"/>
<path d="M216 423H213.794L212 420.592L210.434 423H208L210.606 419.36L208.32 416H210.526L211.909 418.128L213.463 416H215.84L213.269 419.36L216 423Z" fill="#A9ABC7"/>
<path d="M222 406H220.08L218.485 403.936L217.032 406H215L217.316 402.88L215.284 400H217.245L218.475 401.814L219.856 400H221.97L219.684 402.88L222 406Z" fill="#A9ABC7"/>
<path d="M177 461H175.053L173.47 458.936L172.098 461H170L172.31 457.88L170.293 455H172.239L173.46 456.824L174.831 455H176.929L174.66 457.88L177 461Z" fill="#A9ABC7"/>
<path d="M202 432H199.775L197.965 429.919L196.386 432H194L196.628 428.855L194.323 426H196.628L198.023 427.839L199.591 426H201.988L199.395 428.855L202 432Z" fill="#A9ABC7"/>
<path d="M217 446.961H215.056L213.475 444.919L212.095 447H210L212.306 443.855L210.292 441H212.236L213.455 442.839L214.824 441H216.909L214.653 443.855L217 446.961Z" fill="#A9ABC7"/>
<path d="M224 432H222.053L220.47 429.919L219.088 432H217L219.3 428.855L217.282 426H219.229L220.45 427.839L221.821 426H223.899L221.64 428.855L224 432Z" fill="#A9ABC7"/>
</svg>
