<svg width="24" height="30" viewBox="0 0 24 30" fill="none" xmlns="http://www.w3.org/2000/svg">
<path d="M1.81091 23.5704C-1.19209e-07 21.9734 0 20.1285 0 18.2974C3.64364 19.6742 7.26546 21.0509 9.09818 22.6618L9.81818 23.4328V20.2937C6.54545 19.0546 3.44727 17.788 1.81091 16.3424C-1.19209e-07 14.7453 0 12.9004 0 11.0693C3.64364 12.4461 7.26546 13.8229 9.09818 15.4337L9.81818 16.2322V13.0656C6.54545 11.8265 3.44727 10.5599 1.81091 9.11427C-1.19209e-07 7.51721 0 5.67233 0 3.84121C3.64364 5.21799 7.26546 6.59477 9.09818 8.2056C9.31636 8.39835 9.51273 8.60486 9.68727 8.82515C9.31636 7.97155 9.07636 7.17301 9.05454 6.34695C9.03273 4.26801 10.4727 2.13401 11.9127 0C13.4182 2.03763 14.9236 4.08903 14.9455 6.16797C14.9673 7.03534 14.7273 7.91647 14.3345 8.78384C14.5091 8.5911 14.6836 8.39835 14.9018 8.2056C16.7345 6.59477 20.3564 5.21799 24 3.84121C24 5.67233 24 7.51721 22.1891 9.11427C20.5527 10.5599 17.4545 11.8265 14.1818 13.0656V16.2322L14.9018 15.4337C16.7345 13.8229 20.3564 12.4461 24 11.0693C24 12.9004 24 14.7453 22.1891 16.3424C20.5527 17.788 17.4545 19.0546 14.1818 20.2937V23.4328L14.9018 22.6618C16.7345 21.0509 20.3564 19.6742 24 18.2974C24 20.1285 24 21.9734 22.1891 23.5704C20.5527 25.0161 17.4545 26.2827 14.1818 27.5218V30H9.81818V27.5218C6.54545 26.2827 3.44727 25.0161 1.81091 23.5704Z" fill="#DE1483"/>
</svg>
