<svg width="24" height="26" fill="none" xmlns="http://www.w3.org/2000/svg"><path fill-rule="evenodd" clip-rule="evenodd" d="M18.099.648a29.01 29.01 0 00-12.2 0l-.432.093A6.338 6.338 0 002.47 2.3 5.983 5.983 0 00.764 5.142a23.076 23.076 0 000 11.775 5.976 5.976 0 001.593 2.734c.772.76 1.74 1.31 2.804 1.594l.593 3.413a.626.626 0 00.418.477.661.661 0 00.637-.12l3.487-3.005a29.002 29.002 0 007.803-.598l.434-.092a6.339 6.339 0 002.998-1.56 5.983 5.983 0 001.705-2.842 23.078 23.078 0 000-11.775 5.983 5.983 0 00-1.706-2.841 6.339 6.339 0 00-2.998-1.56l-.433-.094zM6.977 5.043a1.083 1.083 0 00-.685.13h-.018c-.479.27-.91.611-1.278 1.012-.306.34-.472.685-.516 1.017a1.35 1.35 0 00.053.584l.022.012c.345.975.795 1.913 1.344 2.796a16.488 16.488 0 002.591 3.411l.031.042.048.035.03.033.036.03a17.304 17.304 0 003.551 2.508c1.475.773 2.37 1.138 2.908 1.29v.008c.157.046.3.067.444.067a2.094 2.094 0 001.23-.509 4.87 4.87 0 001.04-1.234v-.009c.256-.467.17-.907-.2-1.206a15.495 15.495 0 00-2.402-1.66c-.572-.298-1.153-.117-1.388.185l-.502.61c-.258.302-.725.26-.725.26l-.013.008c-3.486-.857-4.417-4.257-4.417-4.257s-.043-.462.28-.698l.628-.487c.301-.236.51-.794.187-1.345a14.54 14.54 0 00-1.72-2.311.962.962 0 00-.561-.324l.002.002zm5.891-1.478a.651.651 0 00-.451.18.603.603 0 00-.187.435.6.6 0 00.187.434c.12.115.282.18.451.18 1.615 0 2.956.508 4.017 1.482.545.532.97 1.163 1.248 1.854.28.692.408 1.43.375 2.171a.595.595 0 00.168.442.653.653 0 00.903.037.606.606 0 00.205-.427 6.37 6.37 0 00-.46-2.668 6.67 6.67 0 00-1.538-2.28l-.013-.012c-1.316-1.211-2.982-1.828-4.905-1.828zm-.043 2.021a.651.651 0 00-.452.18.604.604 0 00-.187.435c0 .163.068.32.187.434a.65.65 0 00.452.18h.022c1.164.08 2.012.454 2.605 1.068.61.632.925 1.417.9 2.388a.61.61 0 00.177.44.652.652 0 00.903.02.605.605 0 00.197-.431c.03-1.275-.396-2.376-1.24-3.253v-.003c-.865-.892-2.051-1.365-3.479-1.457l-.021-.002-.064.001zm-.024 2.06a.66.66 0 00-.475.148.618.618 0 00-.22.432.595.595 0 00.172.451.639.639 0 00.456.195c.534.027.875.182 1.09.39.215.21.376.545.405 1.07a.597.597 0 00.204.438.644.644 0 00.468.164.657.657 0 00.448-.21.608.608 0 00.154-.457c-.04-.738-.28-1.39-.772-1.87-.494-.479-1.167-.712-1.93-.752z" fill="#DF1683"/></svg>