<svg width="24" height="24" fill="none" xmlns="http://www.w3.org/2000/svg"><path fill-rule="evenodd" clip-rule="evenodd" d="M3.172 5.172C2 6.343 2 8.229 2 12c0 3.771 0 5.657 1.172 6.828C4.343 20 6.229 20 10 20h4c3.771 0 5.657 0 6.828-1.172C22 17.657 22 15.771 22 12c0-3.771 0-5.657-1.172-6.828C19.657 4 17.771 4 14 4h-4C6.229 4 4.343 4 3.172 5.172zM6.32 7.616a.5.5 0 10-.64.768l2.159 1.8.026.02c.896.748 1.604 1.338 2.225 1.737.64.411 1.235.654 1.91.654.675 0 1.27-.243 1.91-.654.62-.399 1.329-.99 2.225-1.736l.026-.022 2.16-1.799a.5.5 0 00-.641-.768l-2.16 1.799c-.928.773-1.59 1.323-2.152 1.685-.552.355-.958.495-1.369.495-.411 0-.817-.14-1.369-.495-.563-.362-1.224-.912-2.152-1.685l-2.159-1.8z" fill="#DE1483"/></svg>