<svg width="24" height="24" fill="none" xmlns="http://www.w3.org/2000/svg"><path d="M13.5 2s2.334.212 5.303 3.182c2.97 2.97 3.182 5.303 3.182 5.303m-7.778-4.949s.99.282 2.475 1.767c1.485 1.485 1.768 2.475 1.768 2.475" stroke="#DE1483" stroke-linecap="round"/><path d="M15.556 14.548l-.455.48s-1.083 1.139-4.038-1.972c-2.955-3.111-1.872-4.25-1.872-4.25l.287-.303c.706-.744.773-1.938.156-2.81L8.374 3.91C7.61 2.83 6.135 2.688 5.26 3.609L3.691 5.26c-.433.457-.723 1.048-.688 1.705.09 1.68.808 5.293 4.812 9.51 4.247 4.47 8.232 4.648 9.861 4.487.516-.05.964-.329 1.325-.709l1.42-1.496c.96-1.01.69-2.74-.538-3.446l-1.91-1.1c-.806-.463-1.787-.327-2.417.336z" fill="#DE1483"/></svg>