<?xml version="1.0" standalone="no"?>
<!DOCTYPE svg PUBLIC "-//W3C//DTD SVG 20010904//EN"
 "http://www.w3.org/TR/2001/REC-SVG-20010904/DTD/svg10.dtd">
<svg version="1.0" xmlns="http://www.w3.org/2000/svg"
 width="960.000000pt" height="960.000000pt" viewBox="0 0 960.000000 960.000000"
 preserveAspectRatio="xMidYMid meet">
<metadata>
Created by potrace 1.14, written by Peter Selinger 2001-2017
</metadata>
<g transform="translate(0.000000,960.000000) scale(0.100000,-0.100000)"
fill="#000000" stroke="none">
<path d="M415 9280 c-6 -9 8 -43 27 -64 5 -6 73 -108 150 -226 78 -118 145
-218 150 -221 6 -3 9 -9 9 -13 -1 -3 26 -47 59 -96 33 -49 60 -94 60 -100 0
-5 4 -10 9 -10 5 0 13 -9 16 -20 3 -11 12 -26 18 -32 7 -7 48 -69 92 -136 44
-68 86 -130 93 -137 6 -8 12 -16 12 -20 0 -8 43 -69 53 -73 4 -2 7 -8 7 -13 0
-5 30 -53 66 -106 36 -53 69 -104 72 -112 3 -9 9 -18 12 -21 10 -7 264 -392
272 -412 4 -10 12 -18 18 -18 6 0 9 -4 6 -9 -3 -4 3 -16 14 -26 11 -10 20 -23
20 -30 0 -6 8 -20 18 -31 10 -10 39 -53 65 -95 26 -42 56 -87 67 -99 11 -13
20 -29 20 -37 0 -7 7 -16 15 -19 8 -4 15 -10 15 -15 0 -5 66 -110 147 -233 82
-122 154 -231 161 -242 6 -10 29 -45 50 -78 20 -32 43 -64 50 -71 6 -8 12 -16
12 -18 0 -3 44 -72 99 -154 205 -308 281 -424 281 -429 0 -3 9 -14 20 -26 11
-12 26 -34 32 -50 7 -15 16 -28 20 -28 5 0 8 -7 8 -15 0 -8 4 -15 9 -15 5 0
14 -13 21 -30 7 -16 16 -30 21 -30 5 0 9 -7 9 -15 0 -8 5 -15 10 -15 6 0 10
-7 10 -15 0 -8 4 -15 9 -15 5 0 14 -13 21 -30 7 -16 16 -30 21 -30 5 0 9 -7 9
-15 0 -8 5 -15 10 -15 6 0 10 -5 10 -11 0 -12 60 -103 72 -107 4 -2 8 -8 8
-13 0 -5 55 -91 121 -191 108 -160 120 -184 109 -201 -6 -11 -20 -34 -30 -51
-26 -46 -128 -209 -138 -221 -5 -6 -11 -15 -13 -21 -10 -25 -144 -239 -151
-242 -4 -2 -8 -8 -8 -12 0 -8 -308 -512 -327 -535 -4 -5 -14 -21 -21 -35 -7
-14 -21 -38 -32 -55 -11 -16 -27 -45 -37 -62 -9 -18 -20 -33 -25 -33 -4 0 -8
-5 -8 -11 0 -6 -15 -34 -34 -62 -18 -29 -46 -74 -62 -100 -16 -27 -37 -61 -47
-75 -9 -15 -20 -35 -23 -44 -4 -10 -10 -18 -14 -18 -4 0 -10 -8 -13 -17 -6
-19 -38 -74 -48 -83 -3 -3 -34 -52 -68 -110 -35 -58 -68 -108 -75 -112 -6 -4
-8 -8 -4 -8 6 0 -9 -27 -54 -91 -6 -10 -10 -20 -9 -24 2 -4 -1 -11 -6 -14 -5
-3 -27 -35 -48 -71 -22 -36 -45 -71 -51 -78 -7 -6 -16 -22 -20 -35 -4 -12 -10
-24 -13 -27 -11 -9 -141 -221 -141 -231 0 -5 -4 -9 -9 -9 -5 0 -11 -8 -15 -17
-3 -10 -28 -54 -56 -98 -28 -44 -65 -102 -81 -130 -16 -27 -48 -79 -71 -115
-22 -36 -46 -74 -52 -85 -12 -22 -15 -27 -100 -158 -31 -48 -56 -94 -56 -102
0 -8 -4 -15 -8 -15 -7 0 -60 -82 -102 -158 -8 -15 -30 -48 -48 -74 -17 -26
-32 -49 -32 -52 0 -5 -52 -89 -118 -191 -15 -22 -27 -42 -27 -45 0 -3 -12 -23
-26 -45 -79 -123 -209 -338 -209 -346 0 -5 -4 -9 -8 -9 -5 0 -17 -18 -28 -40
-10 -22 -22 -40 -26 -40 -5 0 -8 -4 -8 -9 0 -5 -26 -51 -59 -102 -188 -301
-223 -362 -202 -356 12 3 23 1 26 -3 3 -5 19 -5 35 0 17 5 30 6 30 2 0 -4 25
-7 55 -7 30 0 55 4 55 8 0 4 8 3 18 -2 13 -7 22 -7 29 0 7 7 13 7 17 1 4 -7
17 -7 36 -2 17 5 30 6 30 2 0 -4 25 -7 55 -7 30 0 55 4 55 8 0 4 8 3 18 -2 13
-7 22 -7 29 0 8 8 13 8 17 0 4 -7 15 -7 31 -1 13 5 26 6 29 2 5 -8 85 -6 93 2
3 3 15 1 28 -4 14 -5 26 -5 33 2 6 6 12 6 16 -1 5 -8 13 -8 27 -1 12 7 19 7
19 1 0 -7 8 -7 23 -2 12 5 31 5 42 1 11 -4 25 -3 32 2 7 5 14 5 18 -2 4 -7 12
-7 26 0 12 7 19 7 19 1 0 -7 8 -7 23 -2 12 5 31 5 42 1 11 -4 25 -3 32 2 7 5
14 5 18 -2 4 -7 12 -7 26 0 12 7 19 7 19 1 0 -7 8 -7 23 -2 12 5 31 5 42 1 11
-4 25 -3 32 2 7 6 14 5 18 -2 3 -6 11 -8 16 -4 15 9 69 11 75 3 2 -4 18 -4 34
1 17 5 30 6 30 2 0 -4 25 -7 55 -7 30 0 55 4 55 8 0 4 8 3 18 -2 13 -7 22 -7
29 0 7 7 13 7 17 1 4 -7 17 -7 36 -2 17 5 30 6 30 2 0 -4 25 -7 55 -7 30 0 55
4 55 8 0 4 8 3 18 -2 13 -7 22 -7 29 0 8 8 13 8 17 0 4 -7 15 -7 31 -1 13 5
26 6 29 2 5 -8 85 -6 93 2 3 3 15 1 28 -4 14 -5 26 -5 33 2 6 6 12 6 16 -1 5
-8 13 -8 27 -1 12 7 19 7 19 1 0 -7 8 -7 23 -2 12 5 31 5 42 1 11 -4 25 -3 32
2 7 5 14 5 18 -2 4 -7 12 -7 26 0 12 7 19 7 19 1 0 -7 8 -7 23 -2 12 5 31 5
42 1 11 -4 25 -3 32 2 7 5 14 5 18 -2 4 -7 12 -7 26 0 12 7 19 7 19 1 0 -7 9
-7 25 -1 16 6 25 6 25 -1 0 -6 7 -6 20 1 11 6 20 7 20 3 0 -11 110 176 110
187 0 6 4 10 9 10 5 0 11 8 15 18 3 9 26 50 51 90 25 41 45 78 45 83 0 5 5 9
10 9 6 0 10 4 10 10 0 5 18 38 40 72 22 35 40 68 40 75 0 6 3 13 8 15 9 4 82
126 82 138 0 5 3 10 8 12 9 4 41 57 49 80 3 10 9 18 14 18 5 0 9 5 9 10 0 6
16 36 35 66 19 30 35 59 35 64 0 6 5 10 10 10 6 0 10 6 10 14 0 8 6 21 13 28
11 12 27 39 61 103 6 11 13 22 16 25 3 3 11 16 19 30 18 32 189 319 219 368
12 20 30 52 39 69 9 18 20 33 25 33 4 0 8 7 8 15 0 9 5 21 11 28 6 7 65 104
132 217 66 113 124 207 129 208 4 2 8 12 8 23 0 10 4 19 9 19 5 0 11 6 13 13
3 13 298 509 307 517 3 3 7 12 9 20 2 8 9 22 16 30 7 8 39 60 71 115 32 55 65
108 73 117 8 10 12 18 8 18 -4 0 0 7 8 16 9 8 16 22 16 30 0 8 5 14 10 14 6 0
10 7 10 15 0 8 4 15 9 15 5 0 11 8 13 18 3 12 15 1 41 -40 20 -31 37 -62 37
-68 0 -5 4 -10 8 -10 5 0 15 -12 23 -27 7 -16 30 -54 51 -85 21 -31 38 -62 38
-67 0 -6 3 -11 8 -11 4 0 12 -10 18 -23 6 -12 70 -116 142 -230 73 -115 132
-212 132 -218 0 -5 5 -9 10 -9 6 0 10 -7 10 -15 0 -8 5 -15 10 -15 6 0 10 -5
10 -11 0 -6 13 -30 30 -54 16 -24 30 -48 30 -53 0 -6 3 -12 8 -14 10 -4 112
-167 112 -179 0 -5 3 -9 8 -9 4 0 12 -9 17 -20 14 -29 237 -384 244 -390 4 -3
13 -18 22 -35 8 -16 40 -70 72 -118 31 -48 57 -92 57 -97 0 -6 4 -10 9 -10 5
0 11 -8 14 -17 6 -20 39 -75 48 -83 4 -3 15 -20 25 -37 11 -18 60 -97 109
-175 50 -79 95 -151 100 -160 6 -10 46 -74 90 -144 44 -69 91 -145 104 -167
13 -23 27 -44 30 -47 4 -3 26 -39 50 -80 25 -41 47 -77 51 -80 4 -3 10 -12 13
-20 4 -8 16 -28 27 -45 11 -16 27 -43 36 -59 9 -16 20 -34 25 -40 26 -31 57
-85 51 -90 -3 -3 0 -6 6 -6 6 0 14 -9 17 -20 5 -16 10 -18 26 -10 13 7 19 7
19 1 0 -7 9 -7 26 -1 14 6 23 6 20 1 -3 -4 13 -5 34 -1 22 4 43 4 45 -1 3 -4
19 -4 35 1 17 5 30 6 30 2 0 -4 25 -7 55 -7 30 0 55 4 55 8 0 4 8 3 18 -2 13
-7 22 -7 29 0 7 7 13 7 17 1 4 -7 17 -7 36 -2 17 5 30 6 30 2 0 -4 25 -7 55
-7 30 0 55 4 55 8 0 4 8 3 18 -2 13 -7 22 -7 29 0 8 8 13 8 17 0 4 -7 15 -7
31 -1 13 5 26 6 29 2 5 -8 85 -6 93 2 3 3 15 1 28 -4 14 -5 26 -5 33 2 6 6 12
6 16 -1 5 -8 13 -8 27 -1 12 7 19 7 19 1 0 -7 8 -7 23 -2 12 5 31 5 42 1 11
-4 25 -3 32 2 7 5 14 5 18 -2 4 -7 12 -7 26 0 12 7 19 7 19 1 0 -7 8 -7 23 -2
12 5 31 5 42 1 11 -4 25 -3 32 2 7 5 14 5 18 -2 4 -7 12 -7 26 0 12 7 19 7 19
1 0 -7 8 -7 23 -2 12 5 31 5 42 1 11 -4 25 -3 32 2 7 6 14 5 18 -2 3 -6 11 -8
16 -4 15 9 69 11 75 3 2 -4 18 -4 34 1 17 5 30 6 30 2 0 -4 25 -7 55 -7 30 0
55 4 55 8 0 4 8 3 18 -2 13 -7 22 -7 29 0 7 7 13 7 17 1 4 -7 17 -7 36 -2 17
5 30 6 30 2 0 -4 25 -7 55 -7 30 0 55 4 55 8 0 4 8 3 18 -2 13 -7 22 -7 29 0
8 8 13 8 17 0 4 -7 15 -7 31 -1 13 5 26 6 29 2 5 -8 85 -6 93 2 3 3 15 1 28
-4 14 -5 26 -5 33 2 6 6 12 6 16 -1 5 -8 13 -8 27 -1 12 7 19 7 19 1 0 -7 8
-7 23 -2 12 5 31 5 42 1 11 -4 25 -3 32 2 7 5 14 5 18 -2 4 -7 12 -7 26 0 12
7 19 7 19 1 0 -7 8 -7 23 -2 12 5 31 5 42 1 11 -4 25 -3 32 2 7 5 14 5 18 -2
4 -7 12 -7 26 0 12 7 19 7 19 1 0 -7 8 -7 24 -1 13 5 26 7 29 4 8 -9 78 -10
83 -2 3 5 11 5 17 1 7 -3 4 3 -5 14 -10 11 -18 23 -18 27 0 4 -5 12 -11 19 -6
7 -56 82 -111 167 -56 85 -105 157 -110 158 -4 2 -8 8 -8 12 0 5 -35 62 -78
127 -43 65 -146 219 -228 343 -82 124 -155 236 -162 250 -7 13 -16 27 -20 30
-4 3 -32 43 -62 90 -30 47 -58 90 -63 95 -4 6 -29 44 -56 85 -27 41 -130 198
-230 348 -99 150 -181 278 -181 283 0 5 -4 9 -10 9 -5 0 -10 6 -10 14 0 8 -3
16 -7 18 -12 5 -53 66 -53 77 0 6 -8 15 -17 20 -10 6 -13 11 -8 11 7 0 7 3 0
8 -11 7 -81 111 -101 149 -7 12 -17 28 -24 35 -6 7 -34 49 -63 93 -28 44 -53
82 -57 85 -3 3 -11 17 -19 32 -8 15 -21 36 -30 45 -9 10 -22 30 -30 46 -8 15
-18 27 -23 27 -4 0 -8 5 -8 10 0 13 -140 224 -152 228 -4 2 -8 8 -8 14 0 10
-164 263 -200 308 -11 14 -20 30 -20 37 0 6 -3 13 -8 15 -4 1 -31 39 -59 83
-29 44 -58 87 -64 96 -11 15 -117 175 -151 228 -10 14 -25 40 -34 56 -9 17
-20 32 -23 35 -10 8 -61 89 -60 96 0 3 -9 14 -20 23 -12 10 -21 21 -21 25 0 4
-27 47 -60 96 -33 49 -60 94 -60 100 0 5 -3 10 -7 10 -5 0 -26 28 -48 63 -22
34 -43 64 -47 65 -5 2 -8 8 -8 14 0 5 -11 24 -25 42 -14 18 -25 38 -25 44 0 7
-3 12 -8 12 -4 0 -16 16 -26 35 -11 19 -23 35 -28 35 -5 0 -6 5 -3 10 3 6 1
10 -4 10 -6 0 -11 7 -11 15 0 8 -3 15 -7 15 -5 0 -16 14 -26 31 -17 31 -17 31
20 92 57 93 61 99 79 135 10 17 21 32 26 32 4 0 8 6 8 14 0 8 6 21 13 28 6 7
19 27 27 43 8 17 17 32 21 35 5 5 86 138 119 195 9 17 33 56 53 87 21 31 37
62 37 68 0 5 4 10 9 10 5 0 11 8 15 18 3 9 14 31 25 47 56 90 109 177 198 323
54 89 110 181 125 205 15 23 32 51 38 62 6 11 19 34 29 50 10 17 41 68 69 115
29 47 55 90 60 95 4 6 11 17 15 25 4 8 13 24 20 35 7 11 25 43 42 70 16 28 32
52 35 55 3 3 35 54 70 113 36 60 72 121 81 135 9 15 75 124 147 242 73 118
159 261 193 318 34 56 65 105 70 108 5 3 7 10 4 15 -4 5 -2 9 2 9 5 0 22 25
38 55 17 30 33 55 38 55 4 0 7 4 7 10 0 5 29 57 65 115 36 57 65 109 65 115 0
5 5 10 10 10 6 0 10 7 10 15 0 8 5 15 10 15 6 0 10 4 10 9 0 5 17 37 38 71 20
33 42 69 47 78 74 126 100 168 105 172 7 7 29 42 37 60 4 8 21 38 39 65 17 28
32 54 32 59 0 5 4 12 9 15 9 7 73 109 73 117 0 3 11 20 25 38 14 18 25 38 25
44 0 7 5 12 10 12 6 0 10 5 10 10 0 6 17 37 37 68 20 31 37 59 38 62 0 3 26
46 58 96 31 50 57 94 57 98 0 4 9 16 20 28 11 12 20 28 20 35 0 7 5 13 11 13
5 0 8 4 4 9 -3 5 -1 12 5 16 13 8 33 46 23 44 -4 -1 -10 0 -13 1 -15 5 -73 4
-77 -3 -2 -4 -13 -3 -23 3 -12 6 -21 7 -25 0 -4 -6 -15 -6 -30 0 -16 6 -25 6
-25 -1 0 -6 -9 -5 -22 2 -13 7 -25 11 -28 9 -21 -12 -48 -16 -65 -10 -11 4
-25 3 -32 -2 -7 -5 -14 -5 -18 2 -4 7 -12 7 -26 0 -12 -7 -19 -7 -19 -1 0 7
-8 7 -22 2 -13 -5 -32 -5 -43 -1 -11 4 -25 3 -32 -2 -7 -5 -14 -5 -18 2 -4 7
-12 7 -27 -1 -14 -7 -23 -8 -30 -1 -7 7 -19 7 -34 2 -15 -6 -24 -6 -24 0 0 6
-10 6 -26 0 -14 -6 -23 -6 -20 -2 5 9 -69 6 -84 -3 -6 -3 -10 -3 -10 2 0 4
-11 8 -25 8 -14 0 -25 -4 -25 -8 0 -4 -8 -3 -18 2 -10 5 -24 6 -32 1 -8 -5
-21 -5 -30 0 -9 5 -23 4 -32 -1 -11 -6 -19 -6 -23 1 -4 7 -12 7 -25 0 -10 -6
-21 -6 -24 -2 -6 9 -59 7 -75 -3 -6 -3 -11 -2 -11 4 0 7 -8 7 -25 1 -13 -5
-26 -6 -29 -2 -5 8 -85 6 -93 -2 -3 -3 -15 -1 -28 4 -14 5 -26 5 -33 -2 -6 -6
-12 -6 -16 1 -5 8 -13 8 -27 1 -12 -7 -19 -7 -19 -1 0 7 -8 7 -22 2 -13 -5
-32 -5 -43 -1 -11 4 -25 3 -32 -2 -7 -6 -14 -5 -18 2 -3 6 -11 8 -16 4 -15 -9
-69 -11 -75 -3 -2 4 -18 4 -34 -1 -17 -5 -30 -6 -30 -2 0 4 -25 7 -55 7 -30 0
-55 -4 -55 -8 0 -4 -8 -3 -18 2 -13 7 -22 7 -29 0 -7 -7 -13 -7 -17 -1 -4 7
-17 7 -36 2 -17 -5 -30 -6 -30 -2 0 4 -25 7 -55 7 -30 0 -55 -4 -55 -8 0 -4
-8 -3 -18 2 -13 7 -22 7 -29 0 -8 -8 -13 -8 -17 0 -4 7 -15 7 -31 1 -13 -5
-26 -6 -29 -2 -5 8 -85 6 -93 -2 -3 -3 -15 -1 -28 4 -14 5 -26 5 -33 -2 -6 -6
-12 -6 -16 1 -5 8 -13 8 -27 1 -12 -7 -19 -7 -19 -1 0 7 -8 7 -22 2 -13 -5
-32 -5 -43 -1 -11 4 -25 3 -32 -2 -7 -5 -14 -5 -17 1 -12 19 -54 -11 -80 -58
-14 -25 -44 -77 -66 -116 -23 -38 -46 -81 -53 -95 -6 -14 -14 -27 -17 -30 -3
-3 -11 -16 -18 -29 -8 -13 -23 -40 -35 -60 -11 -20 -27 -49 -35 -66 -9 -16
-18 -32 -21 -35 -4 -3 -19 -30 -35 -60 -16 -30 -35 -62 -42 -71 -8 -8 -14 -18
-14 -21 0 -4 -32 -62 -71 -130 -105 -183 -121 -210 -137 -243 -9 -16 -18 -32
-21 -35 -3 -3 -11 -14 -17 -25 -32 -58 -69 -124 -142 -252 -45 -78 -82 -146
-82 -152 0 -6 -4 -11 -8 -11 -4 0 -21 -27 -37 -60 -17 -33 -33 -60 -37 -60 -5
0 -8 -4 -8 -9 0 -6 -29 -60 -65 -122 -36 -61 -65 -113 -65 -116 0 -2 -15 -28
-34 -58 -19 -29 -32 -56 -29 -59 4 -3 1 -6 -5 -6 -7 0 -12 -7 -12 -15 0 -8 -4
-15 -10 -15 -5 0 -10 -5 -10 -10 0 -6 -55 -106 -122 -223 -67 -116 -126 -221
-132 -232 -6 -11 -13 -22 -16 -25 -3 -3 -13 -21 -24 -40 -26 -51 -77 -141 -96
-172 l-17 -28 -91 141 c-51 77 -92 145 -92 150 0 5 -4 9 -10 9 -5 0 -10 6 -10
13 0 8 -11 27 -25 43 -14 16 -28 37 -31 47 -3 9 -10 17 -15 17 -5 0 -9 6 -9
13 0 7 -25 49 -55 94 -30 46 -55 87 -55 92 0 5 -4 11 -8 13 -4 2 -41 55 -80
118 -40 63 -111 174 -157 245 -46 72 -112 175 -147 230 -34 55 -66 102 -70
103 -5 2 -8 8 -8 13 0 5 -30 55 -67 111 -86 130 -91 139 -99 161 -3 9 -10 17
-14 17 -4 0 -12 11 -18 25 -7 14 -17 31 -22 38 -6 7 -65 98 -131 202 -67 105
-145 227 -175 272 -30 46 -54 87 -54 93 0 5 -4 10 -9 10 -5 0 -14 14 -21 30
-7 17 -16 30 -21 30 -5 0 -9 5 -9 11 0 6 -13 29 -29 52 -15 23 -44 67 -63 97
-132 209 -162 251 -174 246 -8 -3 -14 -2 -14 2 0 4 -27 7 -60 7 -33 0 -60 -4
-60 -8 0 -4 -8 -3 -17 2 -21 11 -31 11 -58 1 -11 -4 -29 -4 -40 0 -11 4 -25 3
-32 -2 -7 -5 -14 -5 -18 2 -4 7 -12 7 -26 0 -12 -7 -19 -7 -19 -1 0 7 -8 7
-22 2 -13 -5 -32 -5 -43 -1 -11 4 -25 3 -32 -2 -7 -5 -14 -5 -18 2 -4 7 -12 7
-27 -1 -14 -7 -23 -8 -30 -1 -7 7 -19 7 -34 2 -15 -6 -24 -6 -24 0 0 6 -10 6
-26 0 -14 -6 -23 -6 -20 -2 5 9 -69 6 -84 -3 -6 -3 -10 -3 -10 2 0 4 -11 8
-25 8 -14 0 -25 -4 -25 -8 0 -4 -8 -3 -18 2 -10 5 -24 6 -33 1 -8 -5 -21 -5
-29 0 -8 5 -21 5 -31 -1 -11 -6 -20 -5 -24 1 -4 7 -12 7 -25 0 -10 -6 -21 -6
-24 -2 -6 9 -59 7 -75 -3 -6 -3 -11 -2 -11 4 0 7 -8 7 -25 1 -13 -5 -26 -6
-29 -2 -5 8 -85 6 -93 -2 -3 -3 -15 -1 -28 4 -14 5 -26 5 -33 -2 -6 -6 -12 -6
-16 1 -5 8 -13 8 -27 1 -12 -7 -19 -7 -19 -1 0 7 -8 7 -22 2 -13 -5 -32 -5
-43 -1 -11 4 -25 3 -32 -2 -7 -6 -14 -5 -18 2 -3 6 -11 8 -16 4 -15 -9 -69
-11 -75 -3 -2 4 -18 4 -34 -1 -17 -5 -30 -6 -30 -2 0 4 -25 7 -55 7 -30 0 -55
-4 -55 -8 0 -4 -8 -3 -18 2 -13 7 -22 7 -29 0 -7 -7 -13 -7 -17 -1 -4 7 -17 7
-36 2 -17 -5 -30 -6 -30 -2 0 4 -25 7 -55 7 -30 0 -55 -4 -55 -8 0 -4 -8 -3
-18 2 -13 7 -22 7 -29 0 -8 -8 -13 -8 -17 0 -4 7 -15 7 -31 1 -13 -5 -26 -6
-29 -2 -5 8 -85 6 -93 -2 -3 -3 -15 -1 -28 4 -14 5 -26 5 -33 -2 -6 -6 -12 -6
-16 1 -5 8 -13 8 -27 1 -12 -7 -19 -7 -19 -1 0 7 -8 7 -22 2 -13 -5 -32 -5
-43 -1 -11 4 -25 3 -32 -2 -7 -5 -14 -5 -18 2 -4 7 -12 7 -27 -1 -14 -7 -23
-8 -30 -1 -7 7 -19 7 -34 2 -15 -6 -24 -6 -24 0 0 6 -10 6 -26 0 -14 -6 -23
-7 -21 -2 6 8 -50 8 -59 -1 -4 -3 -15 -2 -25 3 -11 7 -20 7 -24 0z"/>
</g>
</svg>
