<svg width="30" height="30" fill="none" xmlns="http://www.w3.org/2000/svg"><g clip-path="url(#clip0_1462_5280)"><g clip-path="url(#clip1_1462_5280)" stroke="#DE1483" stroke-width="1.5" stroke-linecap="round"><path d="M17.048 22h-4.096a.84.84 0 01-.835-.748l-1.214-10.92a.84.84 0 01.835-.932h6.524a.84.84 0 01.834.932l-1.213 10.92a.84.84 0 01-.835.748z" fill="#DE1483"/><path d="M4.5 8a3.5 3.5 0 100-7 3.5 3.5 0 000 7z" fill="#DE1483" stroke-miterlimit="1.5" stroke-linejoin="round"/><path d="M4.5 4.5l6.3 4.9M4.5 25.5l7-5.6m14-15.4l-6.3 4.9m6.3 16.1l-7-5.6" stroke-linejoin="round"/><path d="M4.5 29a3.5 3.5 0 100-7 3.5 3.5 0 000 7zm21-21a3.5 3.5 0 100-7 3.5 3.5 0 000 7zm0 21a3.5 3.5 0 100-7 3.5 3.5 0 000 7z" fill="#DE1483" stroke-miterlimit="1.5" stroke-linejoin="round"/></g></g><defs><clipPath id="clip0_1462_5280"><path fill="#fff" d="M0 0h30v30H0z"/></clipPath><clipPath id="clip1_1462_5280"><path fill="#fff" d="M0 0h30v30H0z"/></clipPath></defs></svg>