<svg width="30" height="30" fill="none" xmlns="http://www.w3.org/2000/svg"><g clip-path="url(#clip0_1462_5297)"><g clip-path="url(#clip1_1462_5297)" fill="#DE1483"><path d="M28.294 23.981a1.877 1.877 0 00-.162-3.071l-.007-10.916-1.875 1.256v9.656a1.877 1.877 0 00-.172 3.055l-.71.94a4.65 4.65 0 00-.993 2.81V30h1.528a1.65 1.65 0 001.6-1.244l.62-2.505v3.75h1.875v-2.269a4.66 4.66 0 00-1.001-2.822l-.703-.93zM15 0L0 7.5l15 9.375L30 7.5 15 0z"/><path d="M15 18.75l-9.375-6.244v3.207c0 1.706 5.512 6.787 9.375 6.787 3.863 0 9.375-5.081 9.375-6.787v-3.207L15 18.75z"/></g></g><defs><clipPath id="clip0_1462_5297"><path fill="#fff" d="M0 0h30v30H0z"/></clipPath><clipPath id="clip1_1462_5297"><path fill="#fff" d="M0 0h30v30H0z"/></clipPath></defs></svg>