<svg width="24" height="24" fill="none" xmlns="http://www.w3.org/2000/svg"><path d="M11.995 2.876c2.972 0 3.324.011 4.497.065a6.173 6.173 0 012.067.383 3.685 3.685 0 012.113 2.112c.245.662.374 1.361.383 2.067.053 1.174.064 1.526.064 4.497 0 2.972-.01 3.324-.064 4.498a6.171 6.171 0 01-.383 2.066 3.685 3.685 0 01-2.113 2.113 6.176 6.176 0 01-2.067.383c-1.173.053-1.525.065-4.497.065s-3.324-.012-4.497-.065a6.176 6.176 0 01-2.067-.383 3.685 3.685 0 01-2.112-2.113 6.174 6.174 0 01-.383-2.066C2.883 15.324 2.87 14.972 2.87 12c0-2.971.011-3.323.065-4.497a6.174 6.174 0 01.383-2.067A3.685 3.685 0 015.43 3.324a6.174 6.174 0 012.067-.383c1.174-.053 1.526-.065 4.497-.065zm0-2.005c-3.02 0-3.401.013-4.588.067a8.17 8.17 0 00-2.703.517 5.452 5.452 0 00-1.97 1.284 5.452 5.452 0 00-1.285 1.97 8.17 8.17 0 00-.517 2.704C.879 8.599.866 8.979.866 12c0 3.02.013 3.401.067 4.588a8.16 8.16 0 00.517 2.703 5.45 5.45 0 001.284 1.97 5.452 5.452 0 001.971 1.285c.865.324 1.78.499 2.703.517 1.187.053 1.566.067 4.588.067 3.023 0 3.402-.013 4.589-.067a8.173 8.173 0 002.702-.517 5.697 5.697 0 003.254-3.256 8.17 8.17 0 00.518-2.703c.053-1.186.065-1.566.065-4.587 0-3.02-.012-3.401-.066-4.588a8.173 8.173 0 00-.518-2.703 5.452 5.452 0 00-1.284-1.971 5.452 5.452 0 00-1.97-1.284 8.171 8.171 0 00-2.704-.517C15.396.884 15.016.87 11.995.87z" fill="#fff"/><path d="M12 6.285a5.715 5.715 0 100 11.43 5.715 5.715 0 000-11.43zm0 9.425a3.71 3.71 0 110-7.42 3.71 3.71 0 010 7.42zm5.936-8.315a1.336 1.336 0 100-2.671 1.336 1.336 0 000 2.67z" fill="#fff"/></svg>