<svg width="1220" height="593" fill="none" xmlns="http://www.w3.org/2000/svg"><path d="M1218.7 264.729a88351.647 88351.647 0 01-74.8-57.452c-14.62-11.188-27.51-25.83-45.5-30.293a3.096 3.096 0 01-1.16-.603c-.33-.28-.61-.629-.8-1.022-3.4-9.032-10.63-11.274-17.84-13.314-5.06-1.424-10.05-4.038-12.96-8.32-3.79-5.536-8.1-7.076-13.4-6.673a13.3 13.3 0 01-9.51-2.847c-31.67-24.077-65.534-43.66-99.026-63.997-3.38-2.05-6.909-3.039-10.332.074-.956.213-2.529.096-2.763.69-.85 2.126 1.19 2.392 2.126 3.093 10.48 7.735 21.024 15.343 31.525 23.046 25.393 18.648 51.64 35.606 78.03 52.256 4.12 2.614 6.01 4.506.35 7.683-3.19 1.795-4.8 5.132-4.81 9.509 0 11.593-.12 11.741-9.9 11.104-4.68-.308-8.51 2.571-12.76 3.708-3.56.956-6.37-3.187-8.87-3.102-7.57.244-14.617-3.018-22.068-2.912-4.581.064-9.035 1.169-13.488 1.552-5.644.478-8.897 1.71-8.121 9.127.255 2.369 1.01 5.227-3.188 5.004-18.729-1.062-37.478-1.593-56.227-2.273-31.834-1.169-63.657-2.264-95.491-3.507-3.007-.117-3.518 1.296-2.933 4.144 17.484 3.336 35.171 3.283 52.836 4.356-17.665-1.062-35.352-1.062-52.836-4.356-6.749 1.158-13.467 1.711-20.068-.988.585-3.315-1.275-3.666-3.443-4.091-9.258-1.828-18.622.117-27.89-1.137-1.361-.18-2.934.521-3.997-1.456a13.474 13.474 0 00-11.33-7.374c-4.507-.382-9.046-.244-13.563-.531-1.892-.127-2.944.255-2.561 2.731l-26.86-13.983c.213-.786.415-1.573.627-2.359 5.708-9.563 4.922-12.017-4.751-14.036-2.689-.563-4.921-1.87-5.314-5.111-.404-3.708-.213-7.512-.277-11.274a9.567 9.567 0 017.76-1.168c2.88.881 4.102-2.009 5.431-4.081.627-.977.797-3.325-.457-3.506-3.338-.478-6.792-3.368-10.108-.51a129.546 129.546 0 00-20.642 23.238c-13.435 0-5.378-13.101-10.097-19.285v36.88c.925 12.56-.436 23.833-11.692 30.272-2.732 1.573-4.166 2.784-5.431-1.732-3.412-12.166-10.629-21.325-18.75-29.56.585-.881 1.828-2.125 1.648-2.603-1.956-5.429-3.625-11.369-9.173-13.335-2.126-.754-3.189-1.859-3.189-4.25-.148-5.058-2.476-8.086-6.59-9.488l-.106-.17c-6.377-4.548-13.031-2.582-19.525-.85-3.71.998-7.132 2.316-11.182 1.965-10.629-.914-21.258-2.019-31.887-3.708-13.424-2.125-26.806-4.728-40.453-5.196-8.44-.287-17.559-1.806-24.245 3.634-6.122 4.973-10.937 2.625-16.538 1.753-2.126-.329-4.337-.393-6.505-.574-1.063-1.232.542-4.653-1.159-4.165-3.72 1.063-6.154-2.73-9.481-2.284-3.263-2.922-1.403-5.1 1.424-7.119-2.731-1.222-4.836-2.317-5.463-5.313l-1.307-9.085c-2.307-4.76-6.207-3.74-9.726-3.187-1.86.287-4.251 1.137-4.251 4.122.106 4.856-1.903 3.252-4.347 2.561-13.127-3.729-23.777-14.514-37.202-17.298l-4.751-1.583c-7.886-5.462-17.006-6.96-25.509-10.36-.478-4.25 3.348-8.713-.351-12.868-4.815-5.397-10.225-9.212-17.219-9.562-5.442-.245-10.118-3.57-14.795-6.238-2.498-1.434-.978-5.716-1.658-8.66a11.914 11.914 0 00-5.24-7.437c-4.252-3.039-1.488-7.523-1.743-11.37-.224-3.357 1.892-3.187 3.954-3.601 24.552-5.143 49.53-5.09 74.264-7.99l94.246-11.072 1.286-.394.404.054.351-.224c2.392-1.179 1.18-2.337 0-3.495-2.71-2.02-5.367-.266-8.035.148l-5.007.32-9.13 1.062-1.998.16c-7.674.594-15.369 1.062-23.033 1.816-23.724 2.465-47.479 4.548-71.065 8.5l-2.987.447a46.543 46.543 0 00-16.241 1.848l-4.995.66-17.325.244c-9.269-1.329-18.069-7.842-27.476-5.409-8.163 2.125-16.326 2.125-24.447 2.742-4.411.33-8.928-.712-13.413.584-2.604.755-2.944 4.983-6.441 4.59-16.762-1.87-33.205 1.318-49.669 4.452-39.752 7.555-79.696 12.708-119.544 18.765-2.062.319-5.442-.776-5.133 4.25.308 5.026 3.316 4.112 5.877 4.006 19.366-.797 38.721-1.679 58.077-2.54 1.063.085 2.009.255 3.008.245 20.195-.287 40.39-.372 60.489 2.04 13.817 1.647 27.699 2.507 38.721-10.328l1.169-1.063c2.881-1.976 5.729-3.995 8.652-5.875 1.063-.691 2.849-1.966 3.189.541.606 5.25 4.485 11.008-1.616 15.514-2.285 1.689-1.063 4.25-.669 6.81 1.636 11.89 12.106 17.936 14.391 29.422.287 1.445 2.806 2.7 4.486 3.326 10.012 3.74 19.557 11.592 30.823 5.11 0 2.615 0 5.016 3.136 5.314a2.55 2.55 0 012.487 2.369c.829 5.419 2.062 10.764 2.604 16.215 1.222 12.293 2.126 24.629 3.125 36.955.255 3.134 1.371 4.25 3.933 2.784a.645.645 0 00.485.551.665.665 0 00.259.012c.276 2.125 1.222 1.817 2.338.829l2.455-1.063c3.04 1.063.245 4.027 1.457 5.674a.906.906 0 00-.946.287l-.999.244c-5.198-.308-10.396-.573-15.582-.945-1.01-.075-3.125.488-2.636-1.435 1.594-6.29-2.466-4.505-4.794-4.59a26568.827 26568.827 0 00-108.691-3.921c-14.36-.489-28.698-.722-43.069-1.062 0-3.294-.191-6.588 0-9.871.128-2.55-.574-3.698-2.795-4.527-8.95-3.347-18.069-3.942-27.37-3.357-7.44.456-15.05 1.987-22.182.467-2.88-.606-4.252 3.188-4.836 1.445-1.882-5.228-5.538-2.869-8.142-2.805-7.791.202-11.575-3.644-10.363-12.91.914-6.97-1.318-10.625-6.75-12.527-2.87-.999-5.686-2.37-8.609-2.869-2.21-.372-3.54-2.816-3.189-3.613 1.882-4.792-1.413-7.066-3.337-9.637a718.527 718.527 0 00-36.34-44.627c-2.126-2.412-4.326-4.951-7.77-4.845-3.444.106-7.674-2.03-9.566.967-1.403 2.284 2.126 6.056 3.486 9.085 7.919 17.128 15.061 34.894 29.06 46.964a5.645 5.645 0 012.242 4.93c-2.731.733-5.474 1.424-8.195 2.221-8.503 2.486-10.363 5.206-9.513 13.866l5.676 2.38c8.142-1.721 9.311 4.123 9.237 11.327l.064 1.275c-2.286 7.268-5.868 1.063-8.854 1.148 1.307-3.857-.33-5.759-4.188-6.801 6.505.308 4.252-3.782 3.73-6.938l-5.675-2.38c-.532 4.25 1.063 8.628-.563 12.814l-3.923 4.707c-1.445 2.221-4.039 4.048-2.614 7.438 3.805 8.968 7.748 17.851 11.691 26.765 2.498 10.307 7.738 16.013 17.613 14.1a28.272 28.272 0 013.528.085c2.52-.127 3.444 1.063 3.55 4.081.553 15.938 1.319 31.759 1.977 47.633.096 2.55-.127 5.781 2.849 5.696 2.976-.085 2.572-3.358 2.498-5.866-.585-14.758-.819-29.528-1.658-44.297-.34-5.78 1.137-6.97 5.93-6.885 6.102.116 13.414 3.325 17.262-5.908.383-.627.765-1.265 1.137-1.902l12.053 4.686c.83.489 2.211.361 2.126 1.955-.319 6.046 1.786 11.688 1.999 17.659.765 20.911 1.222 41.833 2.05 62.69.139 3.454.745 6.737-.977 9.84-2.02 2.263-4.05-.425-6.165 0s-4.528.988-3.88 3.187c1.946 6.662-2.837 6.514-5.633 8.139-4.485 2.603-9.13 4.856-13.764 7.077-1.063.489-2.062 2.125-3.476.095-1.764-2.56-3.114-1.36-4.613.935-1.807 2.752-2.88 7.13-7.217 5.919-1.594 1.796-.531 3.984-.595 5.961-.127 3.878 1.658 7.841-.51 11.613-2.264.308-1.956 1.881-1.34 3.613-.988 4.452-2.784 9.563 1.978 12.166 3.284 1.817 7.663 2.954 10.692-.51 2.828-3.251 5.889-7.268 2.806-12.655-2.306-6.375-1.987-11.061 4.783-13.813 7.239-2.943 14.126-7.055 21.11-10.774 2.39-1.265 4.155-1.998 3.879 2.359-.595 9.467 5.665 6.375 9.768 6.896 4.921.648 5.569-2.944 5.017-7.438-.553-4.495 1.307-4.782 4.432-3.847 8.418 2.529 16.857 4.994 25.339 7.215 19.558 5.132 38.807 11.816 58.598 15.8 3.9.786 1.913 4.091 1.721 6.312-.095 1.062-2.689.701-2.242 2.996.085 1.137.51 2.423.18 3.368-1.371 3.953-1.679 7.948 1.765 10.243 3.188 2.125 7.695 3.358 10.342.531 2.646-2.826 6.377-7.299 3.263-12.984-1.01-6.12-2.126-12.219-2.976-18.382-.404-3.092-10.225-13.25-11.958-11.507-3.475 3.496-6.218.552-9.056-.16-21.087-5.312-41.814-12.75-63.507-14.397-7.728-.595-14.509-8.362-14.881-17.511-.368-9.683-.747-19.363-1.137-29.039-.181-3.188-.351-6.439-.532-9.659l-.191-5.535-.127-6.96-.33-14.026c.056-.131.088-.271.096-.414a6.275 6.275 0 00-.255-.744l.669-2.316c1.541-1.817.872-3.815.34-5.791l-.127-2.55c.574-2.922 0-6.089 1.679-8.787.765-1.254 4.082-1.414 1.966-3.889-1.519-1.775-3.422.361-4.836 1.487a7.847 7.847 0 00-3.04 5.738c-4.123 3.315-4.081 8.5-3.911 13.271.712 19.721 1.786 39.421 2.54 59.141.17 4.431-.786 8.766-3.635 12.166 1.584-3.995-.967-7.437-1.063-11.252-.701-21.835-1.498-43.681-2.264-65.516-.212-3.369 1.563-6.036 2.37-9.043.798-2.018 4.762-1.721 3.072-5.567 7.526-8.352 16.645-10.211 26.743-9.701 22.033 1.062 44.078 1.647 66.112 2.433l2.125.744a2.245 2.245 0 00.627 1.718 2.225 2.225 0 001.701.672c-1.222 2.338-3.093 2.497-5.24 2.402-13.116-.595-26.232-1.233-39.327-1.562-9.704-.245-19.419 0-29.134 0 26.573 1.317 53.145 1.572 80.493 4.112l-6.25-4.803c1.393.075 1.903-.669 1.573-2.21 1.51.117 3.019.159 4.518.351 18.005 2.348 36.053 4.42 54.016 7.172 17.197 2.624 34.937-1.126 51.784 6.821 5.516 2.614 12.244 1.86 18.43 2.551 2.7.308 4.518 1.391 4.156 4.983l-9.566-.765c3.391 3.506 7.217 5.015 10.767 7.14 6.101 3.666 11.692 8.373 17.729 12.283 11.979 7.789 22.938 17.67 35.83 23.61.075.754.139 1.509.202 2.263l-1.243 3.517c-1.775 1.328-.978 3.018-.479 4.665-.223 4.25-1.913 8.638 3.71 10.625 7.589 2.646 13.137-5.068 9.874-12.835-4.932-22.314-12.202-42.035-28.475-42.651 5.24 5.313 11.926 8.288 15.125 15.938a88.326 88.326 0 01-10.788-6.758c-10.151-7.034-19.695-15.736-32.429-15.64l-5.431-.978c.223-5.663 4.868-3.187 7.1-5.1l.074-.074h-.063c-.436-.277-1.063-.436-1.265-.861-.744-1.36-1.063-3.634-.075-4.133 2.296-1.169 4.72-.787 7.069.86 5.41 3.815 9.512 10.488 16.74 10.477.627 2.03 1.903 2.348 3.741 1.764l-3.05-1.86-12.255-11.539c1.413 0 2.126.213 2.689 0 5.314-2.252 6.377 6.375 11.011 5.802 5.698 5.142 12.5 3.336 18.899 3.931 2.455.234 6.196 2.412 5.644-3.644 3.613 6.885 1.998 11.496-4.252 12.198 4.443 0 8.312 4.005 13.02 2.273 11.363 3.815 16.04 13.452 17.209 26.213.117 1.318.807 2.572.924 3.889.234 2.625.861 2.689 3.189 2.125 3.114-.701 6.856-1.062 9.035 3.103.202 5.504-3.04 3.793-5.432 3.273-2.795-.617-5.378.329-6.462 2.9-.819 1.955-.351 6.854.181 6.992 4.857 1.201 9.629 5.313 14.88 1.519.553-.435 1.669-.35 1.191-1.732l.201.117c4.305-.85 3.678-5.716 5.315-8.702.84-1.477.34-4.25 2.551-4.314 2.487-.106 2.179 2.741 2.933 4.431l-1.913 3.825-.765 5.717c-1.212 5.939-4.028 9.318-9.662 7.576-7.44-2.317-15.157-3.868-21.97.903-4.347 3.06-8.046 2.444-12.552 1.976a153.92 153.92 0 01-39.125-8.851 13.62 13.62 0 00-10.427.531c-8.504 3.836-17.602 4.102-26.392 3.018-10.82-1.35-21.492-4.346-32.195-6.843a3206.946 3206.946 0 00-122.498-26.022c-4.252-.818-8.854-1.742-13.084 3.549 11.84 2.784 22.979 5.313 34.097 8.023 44.131 10.689 88.624 19.051 133.085 27.626 7.132 2.05 14.242 4.25 21.428 6.077 3.188.819 3.507 3.061 2.03 5.313-2.36 3.602-1.743 7.194-1.063 10.976-1.637 3.241 3.401 8.501-2.338 10.477-4.73 3.389-5.315 8.394-2.828 13.377 6.452 13.07 10.629 27.116 14.477 41.365 1.063 3.804 2.976 6.375 6.43 7.342.489.67.914.893 1.063-.255l.053-.063c3.125-1.764 6.069 1.774 9.173.403 4.496 5.154 9.183 4.697 13.892.532 3.731-3.294 7.206-6.981 11.054-10.052 5.984-4.76 10.948-10.147 11.256-19.2a4.663 4.663 0 012.424-3.974 16.452 16.452 0 007.004-11.975c.436-3.188 2.211-7.937 5.421-7.332 3.486.649 6.6 3.996 9.874 6.174l-1.339 5.472c-3.189 13.271-4.432 27.137-8.843 40.068l-2.296 11.593c-1.478 2.295-4.9 1.402-5.814 4.622.988-.202 2.253-.234 2.062 1.158-.224 1.605-1.063.776-1.712.34 3.572 2.88 2.126 7.565 2.806 11.486-5.314 24.056-8.875 48.59-15.422 72.253-1.346 5.051-2.7 10.105-4.06 15.163-4.868 5.514-6.325 14.195-12.904 18.19a21.798 21.798 0 00-5.495 5.079c-2.243 2.806-4.677 3.188-7.717 2.285-4.198-1.211-14.806 7.076-15.082 12.145-.255 4.441-2.126 11.231 1.871 12.75 5.856 2.317 12.563 7.13 18.802 2.742 5.559-3.921 12.447-7.916 10.789-18.18-.447-2.806 2.125-3.762 3.539-5.207 11.012-11.348 23.447-20.496 34.087-32.705 14.243-16.342 30.824-29.985 46.565-44.563 7.026-6.524 15.487-10.987 20.769-19.976.967-1.636 2.126-4.25 4.145-3.846 8.153 1.753 16.741 1.158 24.362 5.812-.893 14.004.446 27.87 2.126 41.683.542 4.612 2.551 8.798 6.377 11.327l.064.053c.893 2.317 2.763 3.379 4.56 4.25 16.368 8.267 32.875 8.501 49.18.096 7.61-3.953 11.564-11.476 12.233-21.092.351-5.206.564-10.434.702-15.661.074-2.763.606-4.559 3.465-3.496 9.566.999 18.197 6.12 27.635 7.905 3.699.701 5.538 3.932 5.825 8.5.414 6.376 1.275 12.666 1.945 18.999.893 10.937 1.789 21.867 2.689 32.79l.383 3.358.095 2.38c.351 10.519.723 21.027 1.063 31.547.053 1.731.436 3.995-.319 5.11-5.41 7.863-7.227 18.744-15.412 24.28-.946.637-1.53 2.518-2.838 1.806-6.249-3.411-9.236 1.827-13.211 5.759-5.187 5.143-4.475 11.539-3.55 17.649.839 5.536 6.09 3.453 9.268 4.983a25.813 25.813 0 005.421 1.339c5.995 1.413 16.634-6.981 16.358-13.909-.298-7.544 2.699-12.219 7.111-16.778 3.348-3.474 6.271-7.49 9.374-11.273a26.919 26.919 0 007.802-9.265 16.86 16.86 0 001.987-1.701c23.767-27.293 47.536-54.565 71.31-81.815 1.424-1.626 2.615-4.729 5.155-3.794 5.888 2.125 8.864-2.199 12.319-6.279 3.847-4.537 3.507-9.808 2.7-15.216-.808-5.408-5.166-3.134-7.813-4.558-1.626-.872-3.603-.872-5.42-1.254-6.856-1.445-15.572 6.375-15.349 14.44.16 6.173-2.604 9.382-7.025 12.379-.149-6.184-2.913-10.977-4.124-16.289a971 971 0 01-7.441-35.606c-1.583-8.5-4.251-16.671-4.496-25.501-.117-4.357 6.898-9.478-1.934-13.25-2.519-1.063-3.189-8.755-4.252-13.537-2.721-12.357-5.187-24.789-7.748-37.189-.659-3.698 1.467-3.549 3.603-3.559 27.104-.139 54.207-.564 81.29-.34 15.433.138 30.919.414 46.183 3.75 10.969 2.986 19.132 12.358 29.303 17.139 2.7 1.275 3.604 3.549 2.031 7.034-1.712 3.783-.957 7.013 2.954 8.501a2.317 2.317 0 011.574 2.603c-1.063 6.141-.67 12.293-.245 18.456.999 14.557-2.455 28.806-2.306 43.299l-.415 4.059c-.1.165-.175.344-.223.531l-.957 12.899h-.095c-.744 4.027-5.974 5.313-4.337 10.849-1.53-1.158-.085-3.666-1.807-3.506-1.063.106-1.063 1.816-1.063 3.315 0 5.121-.946 9.031-6.526 5.079a3.181 3.181 0 00-3.052-.573 3.18 3.18 0 00-2.092 2.294c-1.063 3.528-2.562 2.444-4.518 1.487-9.651-4.749-20.014-6.162-30.09-8.957-8.312-2.316-18.909 2.933-24.84-8.575-.053-.106-.308-.074-.468-.095-5.218-.85-11.872 5.61-12.669 11.783-.67 5.313-.553 10.913-4.252 15.163-.467.531 0 2.125 0 3.188a48.002 48.002 0 00-.733 6.258c0 3.719.244 7.066 4.496 8.288 10.055 2.911 13.127.095 12.436-12.209.797-1.657 2.125-3.379.255-5.1-.989-.935-2.785-1.371-1.924-3.294.861-1.923 2.71-.712 4.028-.478 19.047 3.283 38.041 6.896 57.12 9.807 4.199.648 5.028 2.295 4.507 6.376-.521 4.08-1.733 8.627 3.731 10.476 3.752 1.275 7.206 3.06 11.117.925 1.425-.787 2.509-1.424 2.711-3.624.17-1.88-.213-4.898 1.679-5.312 1.892-.415 2.817 2.358 4.071 3.867 1.063 1.254 2.03 2.561 3.051 3.836a29.445 29.445 0 001.998 3.283c6.526 8.171 11.277 18.127 19.015 25.066-.893 4.601-4.602 8.309-3.284 13.632-1.807 4.728-2.201 10.031 1.339 13.154a10.692 10.692 0 0011.947 1.382c4.326-2.359 3.571-7.619 3.04-12.251 1.062-1.339 2.125-3.73 1.158-4.58-5.251-4.473-1.318-10.126-1.722-15.131-.223-2.815.638-5.737-1.456-8.064-2.126-1.764-1.934-6.376-5.665-6.174-3.263-4.08-6.75-7.926-9.715-12.272-4.326-6.375-9.035-11.784-16.018-14.185-1.743-.595-4.995-.978-4.251-4.473.839-3.74 3.709 0 4.187-.319a819.567 819.567 0 0110.279-108.231c-.33 14.238 9.98 14.27 17.272 18.265a61.796 61.796 0 009.311 4.399c3.103 1.063 3.592 2.901 3.263 6.376-1.669 17.34-3.051 34.713-4.539 52.064-.223 2.54-.064 4.962 2.753 5.058 2.498.085 3.252-1.838 3.518-4.548 1.573-16.182 3.433-32.322 4.836-48.526.362-4.08.617-5.706 4.783-4.484 2.966.871 6.271-.595 8.503-3.762l6.271-.988c.915.532 1.595.202 2.126-.743 4.751-5.218 7.005-12.241 10.013-18.712 3.188-3.74 3.04-11.082 9.268-11.613 9.024-1.063 18.069-3.092 27.061-2.997 9.875.117 20.025-7.724 29.713.871.2.181 1.06-.17 1.26-.531 2.84-4.749 6.38-2.518 9.57-1.062 8.29 3.697 16.36 8.086 24.75 11.422 4.6 1.828 5.32 4.112 2.88 8.5a29.974 29.974 0 00-.45 5.674c.41 3.825 0 8.139 4.82 9.351 8.72 2.178 11.43-.553 10.63-11.359.94-1.062 1.5-2.752.77-3.666-5.09-6.513-.74-14.928-3.8-22.441-2.49-6.088-3.8-12.484-8.5-17-6.51-6.195-13.98-7.608-22.18-7.385-10.25.266-11.38-1.445-10.9-13.091.13-3.102.8-6.258.47-9.286-.94-8.501 2.92-9.871 9.27-10.147 37.96-1.658 75.76-6.153 113.6-9.882l2.21-.446 4.81-.362.79-.223-.72-.775c-.13-.284-.32-.369-.58-.255a9.992 9.992 0 00-8.36-3.071c-6.89.414-13.82.712-20.65 1.317-31.85 2.834-63.69 5.713-95.53 8.639-2.27.212-3.58-.213-3.58-3.103.58-7.873 1-15.715 2.13-23.578.75-5.312 5.14-9.084 4.37-13.621-1.44-8.363 2.48-6.546 6.63-6.429 4.99.149 4.25 4.983 4.82 7.895 1.13 5.918 3.6 8.5 8.88 8.5 7.57.085 15.26 0 22.68 1.488 11.91 2.369 19.8-2.221 24.28-15.11.87-2.497 2.52-4.622 3.47-7.087.96-2.465 2.76-2.869 4.06-2.008 2.44 1.604 5.09 1.658 7.6 2.529 33.81 11.837 65.31 30.102 97.24 47.134 6.37 3.422 10.91-1.275 16.15-3.06.7-.117.28-1.849-.96-2.327zM251.942 30.183c1.711-.319 3.189-1.604 4.709-3.485-1.52 1.88-3.008 3.166-4.709 3.485zm77.124 114.936c-1.393-2.582-1.276-2.593-1.584-5.706-1.191-12.262-1.85-24.545-2.126-36.881-.085-3.262.457-5.08 3.189-5.802.797.266 1.583.595 2.391.787 4.985 1.18 7.228 3.389 2.424 8.33-7.876 12.156-5.134 25.852-4.294 39.272zm91.514-7.566c-1.062 3.496-2.274 6.716-6.037 7.098-4.602.999-9.194 2.061-13.817 2.954-2.062.404-3.593 1.116-3.37 3.963-1.371 1.785-.818 5.313-3.826 5.621-1.159-2.794-.149-8.033-5.315-6.269l-1.966-.202-12.234-.223-2.933.266c-3.965 3.517-7.547 7.948-13.148 7.65-8.185-.425-16.507.733-24.447-2.55.234-14.238-5.793-28.476-.127-42.704a47.052 47.052 0 013.188-5.663c2.859-4.898 6.144-5.547 10.948-2.943 7.206 3.91 14.881 6.758 22.321 10.062l2.997 2.125c.829 1.456 2.062.978 3.189.861 14.987 6.258 30.037 12.304 44.556 19.954a1.202 1.202 0 01.021 0zm-71.49 150.563a1.958 1.958 0 00.022 0h-.022zm37.106 3.782l-4.687.171-3.635-.202c-.479-3.114-2.775-2.125-4.412-2.699-1.169-.425-3.337 1.615-3.433-1.679 7.94 1.87 16.199-1.063 24.755 1.594-3.018 2.815-5.92 2.252-8.588 2.815zm18.898-10.402c.17-.265.362-.531.553-.775-.191.276-.383.552-.553.807v-.032zm599.376-52.67v.074l-.08.096.08-.17zm-.06.181c-1.72 2.018-.71 4.77-1.47 7.437-2.75-3.506-5.379-6.874-8.271-10.625 4.146-1.233 7.321-.616 9.701 3.188h.04zm-8.508-24.503a2.42 2.42 0 01.011 0c-.755.415-1.977.5-2.126 1.456.128-.956 1.35-1.041 2.094-1.456h.021zm-215.416-4.101c-.919.158-1.853.215-2.785.17.925.044 1.852-.013 2.764-.17h.021zm-3.284 19.551c.159-3.528 2.019-2.816 3.816-2.816h28.506c-9.438 3.623-18.706 7.098-28.528 6.471-2.083-.128-3.986.01-3.815-3.655h.021zm-29.145-.819c0-2.635 1.063-3.517 3.455-3.325 6.377.51 12.754.754 19.068 1.062 1.722.075 2.774.308 2.721 2.858-.053 2.551-.967 3.252-3.04 3.188-7.206-.202-14.413-.255-21.619-.372h-1.658l-3.029-.829c-2.945.064-5.899.16-8.844.117 2.945 0 5.899-.053 8.844-.117.85-1.987 3.358-.329 4.081-2.582h.021zm-16.464-20.74c2.689 0 5.378.074 8.068 0-2.69.085-5.379 0-8.068 0zm-60.393 8.861c1.148-1.732 2.444 0 3.401.893 3.189 2.975 6.303 6.078 10.353 10.03-4.805-.945-8.854-1.923-12.946-2.476-1.967-.255-2.201-2.125-2.222-3.187a9.88 9.88 0 011.414-5.228v-.032zm-35.171 37.604c0-.075 0-.128-.054-.192-.053-.063.032.149.054.224v-.032zm-167.512-19.147c0-4.346 1.297-8.671.159-13.027v-1.222l2.062-10.7v11.274c-1.466 4.399.596 9.563-2.2 13.675a4.931 4.931 0 01-3.454 1.126 4.93 4.93 0 003.475-1.094l-.042-.032zm-5.187-15.524c-3.646-2.508-6.675-6.195-9.97-9.404 3.338 3.241 6.367 6.928 10.012 9.436l-.042-.032zm-27.242 146.047c2.742-13.814 5.655-27.627 8.046-41.493.468-2.773 1.297-3.187 3.061-2.986 2.53.255 2.19 2.274 1.754 4.251-3.444 15.661-5.665 31.632-9.63 47.177v.095c-.425-.51-1.233-.595-1.764-.945-2.317-1.509-1.935-3.751-1.467-6.099zm-2.264 12.697c.128-2.688 1.722-.372 2.519-.744a5.382 5.382 0 002.721-2.061c.096 2.784.936 5.908 1.254 9.265a39.859 39.859 0 01-4.793-1.955c-1.563-.861-1.828-2.911-1.701-4.505zm-11.458 98.445l-1.243-1.647 39.263-37.296 1.116 1.605-39.136 37.338zm47.522-61.065c-3.019 9.393-9.63 15.503-16.241 21.58-11.309 10.413-22.384 21.156-33.566 31.728-.978.914-1.849 3.007-3.189 2.051-.861-.627-.924-2.731-1.286-3.985 2.392-11.89 4.719-23.588 7.09-35.266 1.945-9.563 4.177-19.125 5.824-28.773.659-3.815 2.487-5.249 5.145-4.792 12.149 2.125 24.446 3.846 36.297 7.267 4.996 1.435.936 7.119-.074 10.19zm83.703-31.897c-10.077 1.296-20.27 2.125-28.496 10.434-2.041 2.072-3.784 4.197-3.657 7.098.202 4.77-1.998 3.102-4.496 2.412 1.924-2.423 3.476-4.782 3.635-8.044.457-9.403-6.972-14.875-18.133-13.112-.616.096-1.222.138-1.838.202.382 1.297-.564.988-1.148 1.127l-.861 1.062c-2.2 4.08-8.248 4.898-7.281 11.794.202 1.467-1.594 1.063-2.36.563-1.063-.68-3.273.117-2.912-2.837.329-2.645.319-5.312.457-8.022l.202-1.445c.149-.807.298-1.604.436-2.401l11.458 2.348.861-1.062c.074-.755.18-1.467 1.063-1.254.151-1.825.486-3.63.999-5.387 2.381-6.036.531-8.501-4.9-9.361-4.199-.627-8.291-2.221-12.425-3.39a8.413 8.413 0 01-4.146-6.375l-1.711-1.116c-1.063 10.987-2.275 21.963-3.189 32.939-.244 2.996-.722 3.761-3.539 3.4a111.986 111.986 0 01-23.171-5.313c-5.92-2.125-6.909-8.213-6.016-13.611 2.7-16.32 6.197-32.471 9.406-48.675.23-.864.507-1.716.83-2.55 3.061 4.686 9.895-2.008 12.148 5.462.925 3.06 3.774 3.899 5.07 1.391 1.839-3.559 4.943-2.688 7.441-4.685-3.285 4.855-1.52 7.437 2.444 9.095 1.499.638 2.668.638 2.859-1.647.489-5.706 4.688-2.741 5.315-1.817 1.849 2.561 4.772 1.849 6.303 3.368 5.739 5.727 10.809 2.88 16.347-.127 2.285-1.243 5.665-2.603 6.25 2.762l-12.755 6.376c7.685 2.507 13.084-.16 18.154-4.537 1.775 1.338 3.189 4.314 5.825 1.838-.5 8.309 4.188 16.384.861 24.821 2.3-.321 4.619-.484 6.941-.489 1.626.096 4.177 2.433 4.432-.659.276-3.421-1.499-10.136-1.786-10.094-7.132 1.063-4.251-5.111-4.91-8.553 4.857 4.09 6.653-3.592 10.629-3.687 2.806-.075 6.377-5.313 7.44 2.444.138.988 3.465 1.391 5.314 2.071-.542 2.837-1.169 5.653-1.615 8.501-.287 1.87-.393 3.336-2.742 2.784-1.765-.415-4.252-2.04-5.315.712-1.169 2.922.457 5.557 2.126 7.831l.255 2.125-.797 2.327c-3.189 6.736-2.413 8.022 4.634 8.107 1.775 0 4.592-.361 4.719 1.785.117 2.773-2.572 2.794-4.655 3.071zm75.008 44.286c-10.448-1.126-20.865-2.348-30.983-5.769.435-6.216-2.126-12.751 4.506-17.84 2.923-2.253 1.191-9.563.351-14.302-.51-2.858-4.06-.361-6.218-.723-4.613-.754-9.268-1.243-13.902-1.848a71.303 71.303 0 00-7.802-1.637c-6.749-.669-11.426-3.485-10.629-12.559-.414.053-.829.085-1.222.096.393 0 .808 0 1.222-.096.074-1.53.68-3.411.117-4.516-1.796-3.57.542-7.523-.404-10.37-3.316-9.935 4.9.669 4.411-3.539 0-.095.096-.212.191-.329-1.063 0-1.424-.584-.988-1.774-2.477.531-3.189-1.01-3.029-3.571 1.063 1.116 4.251-.212 3.188 3.518.659.329 1.68.382 1.063 1.678 5.782-.882 10.767-4.654 16.316-6.502 2.051-.68 4.198-7.98 3.295-12.825-.744-3.996-4.38-2.763-6.803-3.135-8.811-1.349-17.665-2.401-26.498-3.559-1.275-2.264-2.827-2.742-4.74-1.063.085.159.159.298.244.425-.085-.127-.159-.266-.244-.414l-1.361-.117c-1.286-2.306-2.816-2.731-4.655-.808l-2.509-.265c-1.583-2.731-3.55-2.487-5.676-.957a2.316 2.316 0 00-3.018-.542c-.787.861-1.488 1.063-2.126.734.595.371 1.297.127 2.126-.734-.723-2.178-1.796-1.987-3.061-.626a3.704 3.704 0 00-3.912-.744c-7.738-4.675-16.506-3.825-24.712-6.057-12.361-3.347-24.999-5.366-36.606-11.826-2.625-1.466-3.284-4.579-6.143-7.735 12.414 2.125 22.777 6.885 33.459 10.168 30.325 9.33 61.212 15.428 92.132 21.336 6.919 1.328 13.817 3.092 20.609 4.93 3.912 1.063 6.197-2.305 7.132-4.855 1.159-3.135-2.466-2.922-4.315-3.677a10.149 10.149 0 00-1.478-.382c-12.977-3.114-15.029-7.821-10.947-23.27 1.063-3.963.616-8.5.861-12.687l7.812-8.224c4.655 5.95 3.295 10.785-2.073 14.876a11.122 11.122 0 00-1.488 1.572c-.946 1.063-2.126 2.125-.946 3.932 1.18 1.806 2.434 1.732 3.869.361 2.934-2.816 5.889-5.589 8.843-8.383 2.424 4.08 1.829 10.986 8.504 11.188 1.945.064 1.254 3.188 1.413 5.015a20351.85 20351.85 0 014.815 54.19 37.478 37.478 0 00-4.166 1.86c-2.626 1.54-5.878 3.102-5.687 7.002.16 3.187 8.907 7.693 11.214 6.46 1.286 15.014 2.529 30.017 3.911 45.009.255 3.177-.595 4.197-3.263 3.91zm9.566-71.955a1804.432 1804.432 0 00-4.007-47.453c-.468-4.803 1.063-8.054 4.251-10.626 2.69-3.432 1.807-7.289 1.063-11.135-.159-1.148-.308-2.295-.457-3.432 2.275.064 3.604-1.647 4.879-3.453.17.361.33.711.489 1.062.159.351.074.829.117 1.254 1.424 3.878 4.708 4.367 7.036 2.986 4.773-2.837 2.02-8.724 2.838-13.208.457-2.518-.372-4.186-2.987-3.559-5.027-3.624-11.011-1.615-16.294-3.677l-10.841-2.55c1.137-2.125 4.326.287 4.91-3.007.17.17.33.149.479-.053 1.243 3.762 3.613 1.7 5.388 1.126 2.126-.68 1.807-2.783 1.18-4.707l2.923 1.063c.819 7.363 6.378 5.259 9.566 5.079 3.678-.191 1.743-4.718 1.573-7.544 5.666-2.412 11.841 1.232 13.212 7.979.606 2.965 2.572 3.273 4.528 3.603 1.956.329 3.656.648 3.433 3.687-.319 4.377-2.381.935-3.529.966-1.796.064-2.731-.308-2.009 2.721 2.828 11.889 5.315 23.907 7.877 35.871-8.865 5.802 1.69 6.184 1.977 9.425 3.124 15.577 6.186 31.175 9.406 46.752.744 3.602 1.265 5.185-3.316 4.771-12.999-1.191-25.584-4.963-38.392-7.204-3.762-.712-5.049-2.529-5.346-6.737h.053zm48.967 150.945c3.476-4.25 7.122-8.649 10.821-12.963l-10.821 12.963zm3.497-114.107c4.571 22.739 10.523 45.159 12.819 68.407.351 3.645 2.041 8.649 1.318 10.222-2.03 4.42-2.785 10.126-5.463 13.377-14.148 17.107-28.954 33.502-43.579 50.12-.191.213-.627.149-.276.075-3.497-13.813-4.592-28.115-5.655-42.375-1.063-13.919-2.615-27.785-3.348-41.704-.234-4.346-.861-9.765 3.816-12.623 1.265-.776 1.307-3.071.393-3.454-7.376-3.113-6.377-10.901-7.079-17.277-1.499-13.08-2.285-26.255-3.507-39.378-.319-3.347-.128-4.887 3.454-3.92 13.977 3.772 28.028 7.246 42.048 10.838 3.518.903 4.39 4.611 5.006 7.692h.053zm46.427-90.443c-15.858 1.955-31.748 3.655-47.628 5.578-2.221.266-3.901 0-4.634-2.731-1.531-7.916-3.104-15.821-4.581-23.737-1.063-5.557-6.728-11.072 1.063-16.661 26.572 12.591 54.728 24.354 83.628 33.598-9.332 1.328-18.6 2.805-27.901 3.953h.053zm106.428 20.634a3.818 3.818 0 001.562-.467 3.82 3.82 0 01-1.615.467h.053zm72.276-12.538l-.669 2.285-18.665-2.922.574-2.125c1.372-.68 3.062 1.455 4.252-.638l1.456-.255c3.678 4.357 8.663 2.54 13.021 3.666a7.08 7.08 0 012.306-.51 7.09 7.09 0 00-2.317.499h.042zm32.876 34.671a9.21 9.21 0 00.361-3.868 9.187 9.187 0 01-.404 3.868h.043zm4.113-11.337c-2.561-.415-1.892-2.774-1.871-4.505 0-2.03 1.658-1.424 2.7-1.626 5.888-1.063 11.777-2.125 17.676-3.188 9.438-1.062 18.909-2.986 29.306 2.125-16.402 4.272-32.229 4.771-47.854 7.194h.043zm51.381-40.048c-.76 7.119-1.22 14.292-1.55 21.453-.14 3.018-.96 3.804-3.468 3.028-3.008-.935-5.888.67-8.822 1.127l-5.218-.457h-2.041c-8.939 1.062-17.921 1.902-26.828 3.304-11.117 1.754-11.096 1.966-10.161-10.625 1.69-5.143.277-10.243-.159-15.354-1.722-.563-2.424-1.392-2.456-2.316 0 .924.734 1.753 2.456 2.316 9.63-2.072 19.546-1.838 29.049-4.856l5.059-.329 4.251-.638c5.315-.286 10.704-.403 16.038-.924 2.94-.287 4.19.329 3.81 4.271h.04zm.16-8.893l-2.92.393a15.836 15.836 0 00-9.198.616l-1.977.16c-14.36 2.709-28.454-1.063-42.654-2.348a.918.918 0 00-.659-.542c-5.315-7.088-12.319-4.962-18.728-3.762-10.31 1.934-20.62 1.753-30.973 1.796-4.857 0-10.342-2.614-14.221 3.326.191 3.527-1.903 3.644-4.082 3.644-15.763-2.029-31.557-1.179-47.309 0-6.303.457-12.5 2.742-18.76 4.08-2.966.649-5.963.967-8.854-.531-9.396-3.953-18.239-9.637-28.146-11.943-25.849-11.327-51.667-22.706-77.591-33.884-3.507-1.52-6.59-.234-7.748 4.515l-16.624-6.63c2.286-2.465 3.912-4.409 6.495-4.898.754-.138 1.87-.361 1.126-1.7-.266-.478-1.169-.478-1.775-.702-2.476-2.125-6.972.447-8.173-4.664.903-3.995 3.188-1.573 5.027-1.456 8.291.563 15.943 5.143 24.383 5.005 20.822-.308 41.729-1.063 62.423 1.477 21.545 2.688 41.985-3.252 62.711-7.704 4.73-1.062 9.396-.669 14.083-.52 20.705.68 41.453 1.519 62.126 2.337 27.72 1.063 55.441 2.263 83.161 3.283 2.381.085 3.826 1.18 5.601 2.891 12.756 12.251 17.476 27.445 13.556 46.114-.11.542-.21 1.063-.31 1.626a3.39 3.39 0 002.36 1.062 3.384 3.384 0 01-2.39-1.041h.04zm41.3 46.114c3.06 2.816 6.01 5.674 6.24 10.626a2.286 2.286 0 01.71 2.869c-.51-.723-1.06-1.445-1.54-2.179-14.69 4.059-24.21-7.926-35.57-14.333 10.53-2.901 20.83-5.579 30.12 3.017h.04zm6.28-171.409a5.792 5.792 0 016.3.393c-2.68 1.243-4.24 2.072-6.34-.393h.04zm26.19 18.307c2.13-1.232 3.58-2.273 5.76.085-2.12 1.275-3.59 1.924-5.76-.085zm11.02 15.227c.15-.138.29-.319.45-.468-.16.117-.3.276-.45.415v.053z" fill="#DF1683" fill-opacity=".5"/></svg>