<svg width="24" height="30" fill="none" xmlns="http://www.w3.org/2000/svg"><path d="M1.81 23.57C0 21.973 0 20.128 0 18.297c3.644 1.377 7.265 2.754 9.098 4.365l.72.77v-3.138c-3.273-1.24-6.37-2.506-8.007-3.952C0 14.745 0 12.9 0 11.07c3.644 1.377 7.265 2.754 9.098 4.365l.72.798v-3.166c-3.273-1.24-6.37-2.506-8.007-3.952C0 7.517 0 5.672 0 3.841c3.644 1.377 7.265 2.754 9.098 4.365.218.192.415.399.59.62-.372-.854-.612-1.653-.633-2.48C9.033 4.269 10.473 2.135 11.913 0c1.505 2.038 3.01 4.089 3.032 6.168.022.867-.218 1.748-.61 2.616.174-.193.349-.386.567-.578C16.735 6.595 20.356 5.218 24 3.84c0 1.831 0 3.676-1.81 5.273-1.637 1.446-4.736 2.712-8.008 3.952v3.166l.72-.798c1.833-1.611 5.454-2.988 9.098-4.365 0 1.831 0 3.676-1.81 5.273-1.637 1.446-4.736 2.713-8.008 3.952v3.139l.72-.771c1.833-1.611 5.454-2.988 9.098-4.365 0 1.831 0 3.676-1.81 5.273-1.637 1.446-4.736 2.713-8.008 3.952V30H9.818v-2.478c-3.273-1.24-6.37-2.506-8.007-3.952z" fill="#DE1483"/></svg>